<mxfile host="app.diagrams.net" modified="2022-08-02T20:52:26.843Z" agent="5.0 (Macintosh; Intel Mac OS X 10_15_7) AppleWebKit/537.36 (KHTML, like Gecko) Chrome/103.0.0.0 Safari/537.36" etag="UqouHEkTed1211UDLt1P" version="20.2.2" type="github" pages="2">
  <diagram name="Overall Normal Workflow" id="74e2e168-ea6b-b213-b513-2b3c1d86103e">
    <mxGraphModel dx="1472" dy="1129" grid="1" gridSize="10" guides="1" tooltips="1" connect="1" arrows="1" fold="1" page="1" pageScale="1" pageWidth="1100" pageHeight="850" background="none" math="0" shadow="0">
      <root>
        <mxCell id="0" />
        <mxCell id="1" parent="0" />
        <mxCell id="77e6c97f196da883-1" value="Clinical Data Request Process" style="swimlane;html=1;childLayout=stackLayout;startSize=20;rounded=0;shadow=0;labelBackgroundColor=none;strokeWidth=1;fontFamily=Verdana;fontSize=8;align=center;fillColor=#f5f5f5;fontColor=#333333;strokeColor=#666666;" parent="1" vertex="1">
          <mxGeometry x="70" y="40" width="992" height="750" as="geometry" />
        </mxCell>
        <mxCell id="77e6c97f196da883-2" value="Intake" style="swimlane;html=1;startSize=20;" parent="77e6c97f196da883-1" vertex="1">
          <mxGeometry y="20" width="160" height="730" as="geometry">
            <mxRectangle y="20" width="40" height="730" as="alternateBounds" />
          </mxGeometry>
        </mxCell>
        <mxCell id="77e6c97f196da883-8" value="Initial Contact with Requester" style="rounded=1;whiteSpace=wrap;html=1;shadow=0;labelBackgroundColor=none;strokeWidth=1;fontFamily=Verdana;fontSize=8;align=center;fillColor=#dae8fc;strokeColor=#6c8ebf;" parent="77e6c97f196da883-2" vertex="1">
          <mxGeometry x="20" y="60" width="100" height="60" as="geometry" />
        </mxCell>
        <mxCell id="77e6c97f196da883-9" value="Intake Form for Tracking Request" style="rounded=1;whiteSpace=wrap;html=1;shadow=0;labelBackgroundColor=none;strokeWidth=1;fontFamily=Verdana;fontSize=8;align=center;fillColor=#dae8fc;strokeColor=#6c8ebf;" parent="77e6c97f196da883-2" vertex="1">
          <mxGeometry x="20" y="150" width="100" height="60" as="geometry" />
        </mxCell>
        <mxCell id="77e6c97f196da883-26" style="edgeStyle=orthogonalEdgeStyle;rounded=1;html=1;labelBackgroundColor=none;startArrow=none;startFill=0;startSize=5;endArrow=classicThin;endFill=1;endSize=5;jettySize=auto;orthogonalLoop=1;strokeWidth=1;fontFamily=Verdana;fontSize=8;exitX=0.5;exitY=1;exitDx=0;exitDy=0;entryX=0.5;entryY=0;entryDx=0;entryDy=0;" parent="77e6c97f196da883-2" source="77e6c97f196da883-8" target="77e6c97f196da883-9" edge="1">
          <mxGeometry relative="1" as="geometry">
            <mxPoint x="190" y="95" as="targetPoint" />
          </mxGeometry>
        </mxCell>
        <mxCell id="ICng1ieGqrjUcXiE3lIN-3" style="edgeStyle=orthogonalEdgeStyle;rounded=0;orthogonalLoop=1;jettySize=auto;html=1;exitX=0.5;exitY=1;exitDx=0;exitDy=0;entryX=0.5;entryY=0;entryDx=0;entryDy=0;" parent="77e6c97f196da883-2" source="77e6c97f196da883-12" target="77e6c97f196da883-13" edge="1">
          <mxGeometry relative="1" as="geometry" />
        </mxCell>
        <mxCell id="77e6c97f196da883-12" value="Triage and Initial Assignment" style="rounded=1;whiteSpace=wrap;html=1;shadow=0;labelBackgroundColor=none;strokeWidth=1;fontFamily=Verdana;fontSize=8;align=center;fillColor=#dae8fc;strokeColor=#6c8ebf;" parent="77e6c97f196da883-2" vertex="1">
          <mxGeometry x="20" y="240" width="100" height="60" as="geometry" />
        </mxCell>
        <mxCell id="77e6c97f196da883-28" style="edgeStyle=orthogonalEdgeStyle;rounded=1;html=1;labelBackgroundColor=none;startArrow=none;startFill=0;startSize=5;endArrow=classicThin;endFill=1;endSize=5;jettySize=auto;orthogonalLoop=1;strokeWidth=1;fontFamily=Verdana;fontSize=8" parent="77e6c97f196da883-2" source="77e6c97f196da883-9" target="77e6c97f196da883-12" edge="1">
          <mxGeometry relative="1" as="geometry" />
        </mxCell>
        <mxCell id="77e6c97f196da883-13" value="Is this a valid Request?" style="rhombus;whiteSpace=wrap;html=1;rounded=0;shadow=0;labelBackgroundColor=none;strokeWidth=1;fontFamily=Verdana;fontSize=8;align=center;fillColor=#fff2cc;strokeColor=#d6b656;" parent="77e6c97f196da883-2" vertex="1">
          <mxGeometry x="30" y="335" width="80" height="60" as="geometry" />
        </mxCell>
        <mxCell id="_pnJBIeOAMV3EheFCgYe-14" value="Self-Service or Assisted?" style="rhombus;whiteSpace=wrap;html=1;rounded=0;shadow=0;labelBackgroundColor=none;strokeWidth=1;fontFamily=Verdana;fontSize=8;align=center;fillColor=#fff2cc;strokeColor=#d6b656;" vertex="1" parent="77e6c97f196da883-2">
          <mxGeometry x="30" y="440" width="80" height="60" as="geometry" />
        </mxCell>
        <mxCell id="_pnJBIeOAMV3EheFCgYe-15" value="" style="endArrow=classic;html=1;rounded=0;exitX=0.5;exitY=1;exitDx=0;exitDy=0;entryX=0.5;entryY=0;entryDx=0;entryDy=0;" edge="1" parent="77e6c97f196da883-2" source="77e6c97f196da883-13" target="_pnJBIeOAMV3EheFCgYe-14">
          <mxGeometry relative="1" as="geometry">
            <mxPoint x="60" y="410" as="sourcePoint" />
            <mxPoint x="160" y="410" as="targetPoint" />
          </mxGeometry>
        </mxCell>
        <mxCell id="_pnJBIeOAMV3EheFCgYe-16" value="Yes" style="edgeLabel;resizable=0;html=1;align=center;verticalAlign=middle;fontSize=10;" connectable="0" vertex="1" parent="_pnJBIeOAMV3EheFCgYe-15">
          <mxGeometry relative="1" as="geometry" />
        </mxCell>
        <mxCell id="77e6c97f196da883-3" value="Feasibility Analysis" style="swimlane;html=1;startSize=20;" parent="77e6c97f196da883-1" vertex="1">
          <mxGeometry x="160" y="20" width="170" height="730" as="geometry" />
        </mxCell>
        <mxCell id="ICng1ieGqrjUcXiE3lIN-17" value="" style="edgeStyle=orthogonalEdgeStyle;rounded=0;orthogonalLoop=1;jettySize=auto;html=1;" parent="77e6c97f196da883-3" source="77e6c97f196da883-15" target="ICng1ieGqrjUcXiE3lIN-16" edge="1">
          <mxGeometry relative="1" as="geometry" />
        </mxCell>
        <mxCell id="77e6c97f196da883-15" value="Initial Documentation, Project Type Identification, etc" style="rounded=1;whiteSpace=wrap;html=1;shadow=0;labelBackgroundColor=none;strokeWidth=1;fontFamily=Verdana;fontSize=8;align=center;fillColor=#dae8fc;strokeColor=#6c8ebf;" parent="77e6c97f196da883-3" vertex="1">
          <mxGeometry x="30" y="60" width="100" height="60" as="geometry" />
        </mxCell>
        <mxCell id="ICng1ieGqrjUcXiE3lIN-19" value="" style="edgeStyle=orthogonalEdgeStyle;rounded=0;orthogonalLoop=1;jettySize=auto;html=1;entryX=0.5;entryY=0;entryDx=0;entryDy=0;" parent="77e6c97f196da883-3" source="ICng1ieGqrjUcXiE3lIN-16" target="ICng1ieGqrjUcXiE3lIN-28" edge="1">
          <mxGeometry relative="1" as="geometry">
            <mxPoint x="80" y="240" as="targetPoint" />
          </mxGeometry>
        </mxCell>
        <mxCell id="ICng1ieGqrjUcXiE3lIN-16" value="Collaboration &amp;amp; SME Identification" style="rounded=1;whiteSpace=wrap;html=1;shadow=0;labelBackgroundColor=none;strokeWidth=1;fontFamily=Verdana;fontSize=8;align=center;fillColor=#dae8fc;strokeColor=#6c8ebf;" parent="77e6c97f196da883-3" vertex="1">
          <mxGeometry x="30" y="150" width="100" height="60" as="geometry" />
        </mxCell>
        <mxCell id="ICng1ieGqrjUcXiE3lIN-28" value="Is Scientific Gateway necessary?&amp;nbsp;" style="rhombus;whiteSpace=wrap;html=1;rounded=0;shadow=0;labelBackgroundColor=none;strokeWidth=1;fontFamily=Verdana;fontSize=8;align=center;fillColor=#fff2cc;strokeColor=#d6b656;" parent="77e6c97f196da883-3" vertex="1">
          <mxGeometry x="40" y="231" width="80" height="60" as="geometry" />
        </mxCell>
        <mxCell id="ICng1ieGqrjUcXiE3lIN-37" value="" style="endArrow=classic;html=1;rounded=0;fontFamily=Verdana;fontSize=8;exitX=0.5;exitY=1;exitDx=0;exitDy=0;entryX=0.5;entryY=0;entryDx=0;entryDy=0;" parent="77e6c97f196da883-3" source="ICng1ieGqrjUcXiE3lIN-28" target="ICng1ieGqrjUcXiE3lIN-41" edge="1">
          <mxGeometry relative="1" as="geometry">
            <mxPoint x="70" y="420" as="sourcePoint" />
            <mxPoint x="80" y="350" as="targetPoint" />
          </mxGeometry>
        </mxCell>
        <mxCell id="ICng1ieGqrjUcXiE3lIN-38" value="No" style="edgeLabel;resizable=0;html=1;align=center;verticalAlign=middle;fontFamily=Verdana;fontSize=10;" parent="ICng1ieGqrjUcXiE3lIN-37" connectable="0" vertex="1">
          <mxGeometry relative="1" as="geometry">
            <mxPoint y="-15" as="offset" />
          </mxGeometry>
        </mxCell>
        <mxCell id="ICng1ieGqrjUcXiE3lIN-41" value="Has initial cohort been defined?" style="rhombus;whiteSpace=wrap;html=1;rounded=0;shadow=0;labelBackgroundColor=none;strokeWidth=1;fontFamily=Verdana;fontSize=8;align=center;fillColor=#fff2cc;strokeColor=#d6b656;" parent="77e6c97f196da883-3" vertex="1">
          <mxGeometry x="40" y="335" width="80" height="60" as="geometry" />
        </mxCell>
        <mxCell id="ICng1ieGqrjUcXiE3lIN-47" value="Is the project feasible?" style="rhombus;whiteSpace=wrap;html=1;rounded=0;shadow=0;labelBackgroundColor=none;strokeWidth=1;fontFamily=Verdana;fontSize=8;align=center;fillColor=#fff2cc;strokeColor=#d6b656;" parent="77e6c97f196da883-3" vertex="1">
          <mxGeometry x="40" y="430" width="80" height="60" as="geometry" />
        </mxCell>
        <mxCell id="ICng1ieGqrjUcXiE3lIN-49" value="" style="endArrow=classic;html=1;rounded=0;fontFamily=Verdana;fontSize=8;exitX=0.5;exitY=1;exitDx=0;exitDy=0;" parent="77e6c97f196da883-3" source="ICng1ieGqrjUcXiE3lIN-41" target="ICng1ieGqrjUcXiE3lIN-47" edge="1">
          <mxGeometry relative="1" as="geometry">
            <mxPoint x="90" y="440" as="sourcePoint" />
            <mxPoint x="190" y="440" as="targetPoint" />
          </mxGeometry>
        </mxCell>
        <mxCell id="ICng1ieGqrjUcXiE3lIN-50" value="Yes" style="edgeLabel;resizable=0;html=1;align=center;verticalAlign=middle;fontFamily=Verdana;fontSize=10;" parent="ICng1ieGqrjUcXiE3lIN-49" connectable="0" vertex="1">
          <mxGeometry relative="1" as="geometry" />
        </mxCell>
        <mxCell id="ICng1ieGqrjUcXiE3lIN-59" value="Is the project approved?" style="rhombus;whiteSpace=wrap;html=1;rounded=0;shadow=0;labelBackgroundColor=none;strokeWidth=1;fontFamily=Verdana;fontSize=8;align=center;fillColor=#fff2cc;strokeColor=#d6b656;" parent="77e6c97f196da883-3" vertex="1">
          <mxGeometry x="40" y="650" width="80" height="60" as="geometry" />
        </mxCell>
        <mxCell id="ICng1ieGqrjUcXiE3lIN-62" value="" style="edgeStyle=orthogonalEdgeStyle;rounded=0;orthogonalLoop=1;jettySize=auto;html=1;fontFamily=Verdana;fontSize=8;" parent="77e6c97f196da883-3" source="ICng1ieGqrjUcXiE3lIN-60" target="ICng1ieGqrjUcXiE3lIN-59" edge="1">
          <mxGeometry relative="1" as="geometry" />
        </mxCell>
        <mxCell id="ICng1ieGqrjUcXiE3lIN-60" value="IRB Review&lt;br&gt;(Approved, Exempt, NHSR)" style="rounded=1;whiteSpace=wrap;html=1;shadow=0;labelBackgroundColor=none;strokeWidth=1;fontFamily=Verdana;fontSize=8;align=center;fillColor=#dae8fc;strokeColor=#6c8ebf;" parent="77e6c97f196da883-3" vertex="1">
          <mxGeometry x="30" y="560" width="100" height="60" as="geometry" />
        </mxCell>
        <mxCell id="77e6c97f196da883-4" value="Scientific Gateway" style="swimlane;html=1;startSize=20;" parent="77e6c97f196da883-1" vertex="1">
          <mxGeometry x="330" y="20" width="170" height="730" as="geometry" />
        </mxCell>
        <mxCell id="ICng1ieGqrjUcXiE3lIN-26" value="" style="edgeStyle=orthogonalEdgeStyle;rounded=0;orthogonalLoop=1;jettySize=auto;html=1;" parent="77e6c97f196da883-4" source="ICng1ieGqrjUcXiE3lIN-22" target="ICng1ieGqrjUcXiE3lIN-25" edge="1">
          <mxGeometry relative="1" as="geometry" />
        </mxCell>
        <mxCell id="ICng1ieGqrjUcXiE3lIN-22" value="Clinical Data Elements/Concepts Review and Determination" style="rounded=1;whiteSpace=wrap;html=1;shadow=0;labelBackgroundColor=none;strokeWidth=1;fontFamily=Verdana;fontSize=8;align=center;fillColor=#dae8fc;strokeColor=#6c8ebf;" parent="77e6c97f196da883-4" vertex="1">
          <mxGeometry x="30" y="150" width="100" height="60" as="geometry" />
        </mxCell>
        <mxCell id="ICng1ieGqrjUcXiE3lIN-25" value="Expanded Documentation&lt;br&gt;(Source Data location, calculated fields, Encounter filters, etc)" style="rounded=1;whiteSpace=wrap;html=1;shadow=0;labelBackgroundColor=none;strokeWidth=1;fontFamily=Verdana;fontSize=8;align=center;fillColor=#dae8fc;strokeColor=#6c8ebf;" parent="77e6c97f196da883-4" vertex="1">
          <mxGeometry x="30" y="240" width="100" height="60" as="geometry" />
        </mxCell>
        <mxCell id="ICng1ieGqrjUcXiE3lIN-33" value="" style="edgeStyle=orthogonalEdgeStyle;rounded=0;orthogonalLoop=1;jettySize=auto;html=1;fontFamily=Verdana;fontSize=8;" parent="77e6c97f196da883-4" source="ICng1ieGqrjUcXiE3lIN-29" target="ICng1ieGqrjUcXiE3lIN-22" edge="1">
          <mxGeometry relative="1" as="geometry" />
        </mxCell>
        <mxCell id="ICng1ieGqrjUcXiE3lIN-29" value="&lt;p style=&quot;margin-top: 0pt; margin-bottom: 0pt; margin-left: 0in; direction: ltr; unicode-bidi: embed; word-break: normal;&quot;&gt;&lt;font style=&quot;font-size: 8px;&quot;&gt;Evaluation&lt;br&gt;of Methodology, Scientific Need, Design&lt;/font&gt;&lt;/p&gt;" style="rounded=1;whiteSpace=wrap;html=1;shadow=0;labelBackgroundColor=none;strokeWidth=1;fontFamily=Verdana;fontSize=8;align=center;fillColor=#dae8fc;strokeColor=#6c8ebf;" parent="77e6c97f196da883-4" vertex="1">
          <mxGeometry x="30" y="60" width="100" height="60" as="geometry" />
        </mxCell>
        <mxCell id="77e6c97f196da883-5" value="Data Gateway" style="swimlane;html=1;startSize=20;" parent="77e6c97f196da883-1" vertex="1">
          <mxGeometry x="500" y="20" width="150" height="730" as="geometry" />
        </mxCell>
        <mxCell id="ICng1ieGqrjUcXiE3lIN-46" value="" style="edgeStyle=orthogonalEdgeStyle;rounded=0;orthogonalLoop=1;jettySize=auto;html=1;fontFamily=Verdana;fontSize=8;" parent="77e6c97f196da883-5" source="ICng1ieGqrjUcXiE3lIN-39" target="ICng1ieGqrjUcXiE3lIN-45" edge="1">
          <mxGeometry relative="1" as="geometry" />
        </mxCell>
        <mxCell id="ICng1ieGqrjUcXiE3lIN-39" value="Cohort Identification,&lt;br&gt;Cohort Re-use/ Refinement" style="rounded=1;whiteSpace=wrap;html=1;shadow=0;labelBackgroundColor=none;strokeWidth=1;fontFamily=Verdana;fontSize=8;align=center;fillColor=#dae8fc;strokeColor=#6c8ebf;" parent="77e6c97f196da883-5" vertex="1">
          <mxGeometry x="25" y="335" width="100" height="60" as="geometry" />
        </mxCell>
        <mxCell id="ICng1ieGqrjUcXiE3lIN-45" value="&lt;b&gt;i2b2 &lt;/b&gt;&lt;br&gt;Hypothesis Testing, Clinical Concept Exploration, Population of Interest Determined" style="rounded=1;whiteSpace=wrap;html=1;shadow=0;labelBackgroundColor=none;strokeWidth=1;fontFamily=Verdana;fontSize=8;align=center;fillColor=#dae8fc;strokeColor=#6c8ebf;" parent="77e6c97f196da883-5" vertex="1">
          <mxGeometry x="25" y="425" width="100" height="70" as="geometry" />
        </mxCell>
        <mxCell id="ICng1ieGqrjUcXiE3lIN-55" value="&lt;b&gt;Data Definitions&lt;/b&gt;&lt;br&gt;Population of Interest, Date Constraints, proxy data elements, specific concepts, calculated variables, dataset structure&lt;br&gt;&lt;i&gt;OR&lt;/i&gt;&lt;br&gt;&lt;b&gt;Standard Dataset Use&lt;/b&gt;" style="rounded=1;whiteSpace=wrap;html=1;shadow=0;labelBackgroundColor=none;strokeWidth=1;fontFamily=Verdana;fontSize=8;align=center;fillColor=#dae8fc;strokeColor=#6c8ebf;" parent="77e6c97f196da883-5" vertex="1">
          <mxGeometry x="10" y="520" width="130" height="120" as="geometry" />
        </mxCell>
        <mxCell id="77e6c97f196da883-6" value="Build" style="swimlane;html=1;startSize=20;" parent="77e6c97f196da883-1" vertex="1">
          <mxGeometry x="650" y="20" width="160" height="730" as="geometry" />
        </mxCell>
        <mxCell id="ICng1ieGqrjUcXiE3lIN-76" value="" style="edgeStyle=orthogonalEdgeStyle;rounded=0;orthogonalLoop=1;jettySize=auto;html=1;fontFamily=Verdana;fontSize=8;" parent="77e6c97f196da883-6" source="ICng1ieGqrjUcXiE3lIN-65" target="ICng1ieGqrjUcXiE3lIN-75" edge="1">
          <mxGeometry relative="1" as="geometry" />
        </mxCell>
        <mxCell id="Co1qwD8KeL7HL2fnkDNT-9" value="" style="rounded=0;whiteSpace=wrap;html=1;fontSize=19;fillColor=#e1d5e7;opacity=50;strokeColor=#9673a6;" vertex="1" parent="77e6c97f196da883-6">
          <mxGeometry x="20" y="410" width="120" height="290" as="geometry" />
        </mxCell>
        <mxCell id="ICng1ieGqrjUcXiE3lIN-65" value="DataLens Asset Creation/Delivery" style="rounded=1;whiteSpace=wrap;html=1;shadow=0;labelBackgroundColor=none;strokeWidth=1;fontFamily=Verdana;fontSize=8;align=center;fillColor=#dae8fc;strokeColor=#6c8ebf;" parent="77e6c97f196da883-6" vertex="1">
          <mxGeometry x="30" y="530" width="100" height="60" as="geometry" />
        </mxCell>
        <mxCell id="ICng1ieGqrjUcXiE3lIN-74" value="" style="edgeStyle=orthogonalEdgeStyle;rounded=0;orthogonalLoop=1;jettySize=auto;html=1;fontFamily=Verdana;fontSize=8;" parent="77e6c97f196da883-6" source="ICng1ieGqrjUcXiE3lIN-73" target="ICng1ieGqrjUcXiE3lIN-65" edge="1">
          <mxGeometry relative="1" as="geometry" />
        </mxCell>
        <mxCell id="ICng1ieGqrjUcXiE3lIN-73" value="Dataset Creation" style="rounded=1;whiteSpace=wrap;html=1;shadow=0;labelBackgroundColor=none;strokeWidth=1;fontFamily=Verdana;fontSize=8;align=center;fillColor=#dae8fc;strokeColor=#6c8ebf;" parent="77e6c97f196da883-6" vertex="1">
          <mxGeometry x="30" y="430" width="100" height="60" as="geometry" />
        </mxCell>
        <mxCell id="ICng1ieGqrjUcXiE3lIN-75" value="Dataset Refinement &lt;br&gt;and Approval&lt;br&gt;&lt;b&gt;[Feedback Loop]&lt;/b&gt;" style="rounded=1;whiteSpace=wrap;html=1;shadow=0;labelBackgroundColor=none;strokeWidth=1;fontFamily=Verdana;fontSize=8;align=center;fillColor=#dae8fc;strokeColor=#6c8ebf;" parent="77e6c97f196da883-6" vertex="1">
          <mxGeometry x="30" y="620" width="100" height="60" as="geometry" />
        </mxCell>
        <mxCell id="77e6c97f196da883-7" value="Delivery" style="swimlane;html=1;startSize=20;" parent="77e6c97f196da883-1" vertex="1">
          <mxGeometry x="810" y="20" width="160" height="730" as="geometry" />
        </mxCell>
        <mxCell id="ICng1ieGqrjUcXiE3lIN-77" value="Oracle Process for routine dataset generation" style="rounded=1;whiteSpace=wrap;html=1;shadow=0;labelBackgroundColor=none;strokeWidth=1;fontFamily=Verdana;fontSize=8;align=center;fillColor=#dae8fc;strokeColor=#6c8ebf;" parent="77e6c97f196da883-7" vertex="1">
          <mxGeometry x="30" y="540" width="100" height="60" as="geometry" />
        </mxCell>
        <mxCell id="ICng1ieGqrjUcXiE3lIN-79" value="One-time or recurring?" style="rhombus;whiteSpace=wrap;html=1;rounded=0;shadow=0;labelBackgroundColor=none;strokeWidth=1;fontFamily=Verdana;fontSize=8;align=center;fillColor=#fff2cc;strokeColor=#d6b656;" parent="77e6c97f196da883-7" vertex="1">
          <mxGeometry x="40" y="430" width="80" height="60" as="geometry" />
        </mxCell>
        <mxCell id="ICng1ieGqrjUcXiE3lIN-81" value="" style="endArrow=classic;html=1;rounded=0;fontFamily=Verdana;fontSize=8;exitX=0.5;exitY=1;exitDx=0;exitDy=0;entryX=0.5;entryY=0;entryDx=0;entryDy=0;" parent="77e6c97f196da883-7" source="ICng1ieGqrjUcXiE3lIN-79" target="ICng1ieGqrjUcXiE3lIN-77" edge="1">
          <mxGeometry relative="1" as="geometry">
            <mxPoint x="-230" y="490" as="sourcePoint" />
            <mxPoint x="-130" y="490" as="targetPoint" />
          </mxGeometry>
        </mxCell>
        <mxCell id="ICng1ieGqrjUcXiE3lIN-82" value="Recurring" style="edgeLabel;resizable=0;html=1;align=center;verticalAlign=middle;fontFamily=Verdana;fontSize=10;fillColor=#FFFFFF;" parent="ICng1ieGqrjUcXiE3lIN-81" connectable="0" vertex="1">
          <mxGeometry relative="1" as="geometry" />
        </mxCell>
        <mxCell id="Co1qwD8KeL7HL2fnkDNT-1" value="" style="shape=image;verticalLabelPosition=bottom;labelBackgroundColor=default;verticalAlign=top;aspect=fixed;imageAspect=0;image=data:image/png,iVBORw0KGgoAAAANSUhEUgAAAXQAAAGACAYAAAC9YJlcAAAAAXNSR0IArs4c6QAAAHhlWElmTU0AKgAAAAgABAEaAAUAAAABAAAAPgEbAAUAAAABAAAARgEoAAMAAAABAAIAAIdpAAQAAAABAAAATgAAAAAAAACQAAAAAQAAAJAAAAABAAOgAQADAAAAAQABAACgAgAEAAAAAQAAAXSgAwAEAAAAAQAAAYAAAAAAEz37xgAAAAlwSFlzAAAWJQAAFiUBSVIk8AAAQABJREFUeAHtfQm4ZUV57TlNMwoODKKgpmnBmTYiiBpjn8agAuJLFJ+oGDXmCWqMA2B8PmPfxukFEY0mKo6IGhXnKKDiS59GRVHUIIMTYIsDIogDDox931qXU5e6davO3lV73mf93/ffXfXX9Neqvdf+d+1zzh0MJEJACAgBIdALBIa9mIUmIQQKIjA/Pz+adGGOdo9r7cyUemNPvU0e20K94XDoq++pLpMQyIeACD0fTqrVEwQc4jZEPWpweuPJ2Ib4xyL6Blej40OL0Du+gHLfj4BF3OsnNUb+mq22juGdiL7VS9Qu50To7VoPeZOIgEPgo8RuutBsw8RJRfJdWK2afRSh1wy4hisHgRki8CzAFgge2zRzWRVV3n8EROj9X+PezHBC4l3eQqljLUTwdaDc0jFE6C1dGLl1KwIWiY+ESTQCIvdoyLrdQITe7fXrpfcWiXN+o15Osv5JbdC2TP2g1z2iCL1uxDVeEAGLyEfBSiooisAYHWwSuReFsZ3tRejtXJeZ8aotJD4ejxcw37Rp0xLsjX2JERmffTQaLanm5lm4du3agc++pGF9mQ0cSuReH+BVjyRCrxph9e9FoCkiN0RM4jZpc/Q6WqGRxG6Te8Nkv0HEXuFi19S1CL0moDXMrQjUSeQk6g0bFoLQRfLuyjrYZL9+vflgTy3ei9hrgbmaQUTo1eCqXh0E6iByEriJvJuKup1pl5Y1BF9jFC9iL2316utIhF4f1jM5Eoh8DhOvJMTsM4FnnSw1EryIPWsxVC4E+o4AiRxaumzcuHEeZDYP/KQWBnNzc/PUCmWu7+es5icEhICDAAildFYRicfdvEjsxKwimXOWXFkhIAT6hgDIYwTdWBaJkJCoisbjyBzn1eKTC7GrKGrnTXvUt3NY8xECQgAI4OIuLSoXid9GyIS2LK1oS2YO/kmEgBDoAwKM0sqKyEk4wERaAwYVRO1zfTifNQchMJMITIh8YxlkLiJv7iZWMrFrG2Ym2UCT7jQCIPHC2yvaVmmOxHHyLXsKKpvYO32Cd9x5fQ694wtYl/uMyjHWeiiPScLPjfObm1380o/9uW8zedooZj7md2CYN7aFCh35A2IflPit1HVD/RPsjqy83JwpBIpG5V2NyPkpEfpOTRFGvlScLJ3SEiP2uZm6UDRZIdB2BEBkaWw2YcAuEpoh8hQS97WZcWKfa/s5Lv+EQO8RADHxEywbfQSVx8aolsQIoDqjZRO5i9OME/uo9xeNJigE2ogAiCj5xWcXiRxrUNUXcFxOX8h38amFPpcgc2083+WTEOgtArhoN6ZeuHUSFaPpMp4Aqo7KQ1iWdeOj/3XiXgKxz/X24tHEhEBbEADxJG+xlEVOwGLq9owhX45HyaqfVV4COS34UeRPGWRs8CijryzMTHkJ2I3Ql0QICIGyEQAhJT9PlxElYz5TydkQuU2cRcctgZBsdwqlixIxsbCFBF+0z6w1YXkJGM6hH4kQEAJlIQAiSCLzqqNyH4kb0ipKViUQkXGltGPRObmkbhwr2i/Os6k3W5abJwQzZuRxrqxzWf0IgZlGABdeEplXSRLTiJxEUXRstm+rVDm3on3jQplK7AVxnZvpC1GTFwJFESA3phAbCRdjl65ZRG58LTJ2QdIxLlR6LEq8WdEy+69qDQviO1f0nFZ7ITCTCICRNsayEokCYJWueYmc/hYhu4JkEwtXofpF5kk88wjHKDLOtHOhANZzM3lBatJCIBUBXOwb81zwdp0qLvwYIqcvRXwoQDA2DLWm65ovx6kiYi+A+cbUc1vthMDMIAA2Yui2MZaV2nKxY6GSng4KEEssVKXXL4J91taL62yRG0hobQpgvxH+jWbm4tREhUAMArw43As4K09CKEIo8G8ZAbO/WKKhn6lkw/G6LqlrkDr3VKx9621sKWs+WbcR+pAIASFgEMCFEc1qvADRvjRNJXJe1EUIZkIKnT4UWYvUCLkI5qHzRqRurkgdhUAiAmCyxsk8lVQMC2PqSTeWouOa8dtwLELqRfwvm9gLrMko8RJQMyHQHwRwMW+MuaDLvICLROXG51R/ChCHGbp1x9StlzKwSF0HXEnLbsaJ/mzsz1WpmQiBBATASBtjWKkFF+0ydzHtZYSQx7aso54Y8szdV6fAdscici04P0TqWFzJDCKAq3Bu8UrMkSjzYi2DPOhyqk9s11dJ3XpJfUHq4pi6JrgEl92YE9dJpD6DfDbTUyYXuhfitHxZF2lZpEFfU31KJIlp8LSuLHXrpawbbZH1cYk9cb3mZvoC1+RnBwFyYQwDpRInEF0ScSVemEFXU/0KdtizAhf/PPkyb7iEM3WNXF8Tz5059CMRAv1FgNdYDG+VdUGWGfkVIYpEYoiBrDV1U7de2rJWuArLCAjm+ns1a2YzjQCYpnYyLzviM2yZsqVQlS/GpzYe24RTii+4YEXqM81amrwXAZDNKIZwyojMqyLQVN9mKTo3a92WKN340yCpj7wXhoxCoIsImAsqzzGVMIHLYjRVJXmm+FelP3kwbbJOColWdTMmDinrZ59bTCes58YuXrfyWQgsQ4DXUF5Caehiy+veQj1McPHGkTdd9r5wlMMNV25blE44yjjPEtZUpL6MHWToFAK8dvLySeqFb5NqQuSU172FeilEULVPURNoqHLbonTCkLKW9rnGdAKpz6GdRAh0DwFcM7n3zbtA5iQBrEK0st2sS+r6JhBmFNQNkfqoe1ezPJ55BGKuLIAVTZR2mzqi4JSLvw6/YnBusm5KlF4Hfinrap97Cfv92nqZeXbsGAAgjtxbLUUvqDouehKhfRHnTVcdYTZJ0LFjp0bpseOk1C96DorUO0ZQcjc/ArigekfmKRd8XTeaFAJrqk1KlF7XTTFlje0be8J6z+W/qlRTCDSAAIgi9755AxdQMo+lEFHCBZ7sX1capkTpCdFvMhxFz8mEm8+ogctUQwqBfAjEXEnoMWkbg+3qJssUX2OwmKW6KTfHBKJMhrQoqUcOrP30fNSiWnUjgBO5lq2Wusk85QKv28dIEmm0etujdIKTsubmpp/wRDFX97Wq8YTAVARwDdSy1ZJwsRQmL0w8+kmi8KA97yA2Sm9i3WN9tM+ThBv6aOoFpkIhUCcC4J9c0XlKdIZ5LBBqExd1SqSWcDH3nL6XTy+FLOvcdjEep/hpztdIf7X1UidhaawwAnnJnBeJOdlTjuYiq/OYQuh1+tfVsVJu7E3c0IlvyrnKNgn+jtBOIgSaRSAvqaSQI2a2cEE1FfWa8fMeEy7ivPD1rl5K9NsECCk3H3O+xJ4PaDcTMpyJWXZwkrjA5uD2+izXN2zYMAApZ1ULluPCCJblLYjtYzweD6gxwjHWr8+EY6HLWH9i/OhCXWK7bt26KFdBroMmcCty/kb6vGE4HM5FgdLByiL0Fi4ayHwEtzbmcQ0naZ5qqpOAQBkEV0YfxvW1a9eaZOYxltDpJwmyCaGvsTd4+png8zpcL+Mm5ljXmGKDupCOGKeu6DzCJVUVAssQKONmZfpIfcpku7xPbpjAGIQe9+iybNYyCIEIBEjm0FyCbuelwmDWzwHuxUfIHPCSCIF6EMh7YiIyEZnrhqZzIOFTL/VcyRpl5hEAmeeKzkXmispxsYjMLQwUpd9Kn9pDb9FthNF5Hnf0IjQPSqozSwjEviDFNdRL7lsxS4ve5rkyOs/jHz/mJRECQmApAvyUTMy1kfd6WzpK+3O9vEu1H/blHio6X46JLEIgFoGYz6b3MUpXhB57xlRQP2+0EBOBVOCmuhQCrUcg5hrBdTdq/YQiHVSEHglYFdUVnVeBqvqcVQQiovTefS5dEXrDZ72i84YXQMP3DoGIKJ0/TT3qEwCK0BtezSqj86xv0cV83dp8o69huCof3mCyadOmhbGIoaR7CMxqlC5Cb/BcnUTn67NcYMQRSyyxH+PK8mGWyw3Jp2Bgbgwpbd02Rfwo0tb1owv5yPN/HV6QjrswrywfRehZCFVY3mR0XuG01HULEYj92HWeCLeMm0TeG15sQMMlwPWVdyV6t5eed+KqVxICjM5J6FmCEzn6G4FsIxECNgKIWKPOI9Zvk8T6j8s09h+ej0q6tBvtRi9FG4U/e/CUyCS7V9WYNQS4BdFlifhFxcVpRl47mVufix0rIQRcBPJEPynRedsiqzzzVJ3qEcAWSlSEjvO1eqciR6g6Snev0S7mtYfewKrhPJ7DsJkRQey+J6fCqCQlmmFbV86//NrB287+4YL5/MuudYt7md//njsPDli9y8Lcjjl4717NMfZ8yrOPXidA3LOP/ccd9A/XW1431wGjcd7KbawnQm9gVXCCbcSwo2lDp3yyhf1FnLzB4d9+9qWLRB6sNCMFzz14n0FfiD32PwNxm4ak3iaJnQN9j7gxdf7lqPbQmzlbR1UMy+i8qDz7lPNE5haIfEIhJn2Qru+jcw1Snj5n6YtGitBzXKmIekesVsbjGPqaQ1eVbLcUjc4f+NKzOE1JAIELTjwkUNINc8qWRdFzqgpkFKWHUVWEHsbGLuFz50ac3LZsRIY6Z+kI6QW1GzvpTDKPiCgWuy4anfclCl0EpIJE1zFKidDL+Kx52UuREqWX7UNb+1OEnmNlQNLzOaqFqoydgpGTX5ZNiUCKuKg982VLEDR0fU899tyK2H8OYlZFQewL3sj3AZ19ObqyCrDV5xIERktyOTKMQOxoykRJ5uh2UTQ6N59kcftVfjkCxKovL0mXz265hd/ktM/F5TWasdCn0PXg84h1qTnnwqfosa+fttsUoedYoYIReo4R4quYk5kXXJFHUEXn8di/+5gDB/uv3jm+YQtaxH56igTYtk+6EEae/3zaiJGYueAJoJPcqD30mDOiRXV5clKLkDmnw89dS+IQ6PITzdq1a+Mm29La5vyPcc8EQXnaIIgb5anXtjqdvAvVDWIbI/SqMOCXiSjuF4m+cfmvvPYF44z94U3w3Ucf2MlZp0S2Rd7PVAlSylwi3gl08jPpIvTAGbfm+DODL0LNx9f4qQfzrUJ2Y6Ldrj6OB6CYSXPWRzjNOdBFcGJ3EyJIsFY4UgidkX3OLaROErpeihY4BRnFLolkz17emSF5m/hZy9hF/ssxk6VaBEhqJMOui9l2iZlLRN2Fjx/j5tcpoEToFZ/VhvDNcXE4kf8iFEq0G4G2ftKFqPEdUgRJLwDN+rwZ9FFE6C1aVUP65rjomsh/EQoliiMQS4IkwKIv34t77e8hhZgjblCd+/iiCN1/nrTeakjfHBcdzkn+ZsuH7bTts4ieEh1EgKQeE6VH3KBGXYNDhN61FUvw15C+OS504SF+2g3R23v+s/RFmgR4e98khiybACPliSOvn/z4Ypf20UXoeVd2RuoZ0jdHTluE3q/FT9mm6BcCt34xqY84rOjbQmk+QkAIZCMQS2ZtjtI5l9j5cB89p3AfvTMiQu/MUslRISAEykIg4gY1KmvMOvoRodeBssYQAh1HICKibWSmsZ/CiSD0QZd+BkCE3sjpp0GFQLMIxG5RxBBgEzOLnQ99bPucUnAUoaegpjZCoOMI9OVHuuxliCX1iH8k05l9dBG6fUYoLQSEgBDoMAIi9A4vnlwXAnUh0IXtiQr30Ud14Vx0HBF6UQTVXgh0EIHY7YkuTLGPc4rFXYQei5jqCwEh0BsE8j55dOWTLiL03pyamogQiEMgNqLNS35xXpRbO3ZO5Y7efG8i9ObXQB4IASHQEAIRn68fNeRi1LAi9Ci4VFkICIE2IxAboUc8daxt87yNbyJ0g4SOQkAIdB6BPn6+PmZRROgxaKmuEOgRArHRbMT2RGdQiojQR12YlAi9C6skH4WAEMiFQOxNip3mJfUufNJFhJ7rNFElISAE8hJf00ilkHrTPpc1vgi9LCTVjxDoGAKzvt9slitiK2lk2rT1KEJv68q0xC/zL+la4o7cEAKZCChCz4RIFYSAEBACQqDtCChCb/sKyT8hIASEQE4EROg5gVI1ISAEuoFA7LuBrrzszYO+CD0PSi2to/3tli6M3OorAq3/tujKviI/C/N699EHDp59ynmD8y+7dham24k5DofDTviZ4iQj2T7PLwWTtrVRhN62FYn0h6SuSD0SNFUXAj1FQITeg4UVqfdgETUFIVACAiL0EkBsQxci9TasgnwQAs0iIEJvFv9SRxeplwqnOpsRBCI+5TJqOyQi9LavUKR/IvVIwFRdCPQIARF6jxbTTEWkbpDQUQjMFgIi9J6ut0i9pwuraQmBKQiI0KeA0/UikXrXV1D+C4E4BETocXh1rrZIvXNLJodrRiDi1xnHNbsWPZwIPRqy7jUQqXdvzeSxEEhBQISegloH24jUO7hoclkIRCIgQo8ErO3V161bF3RRpB6EprQC/N/JQVd048aNUfPm1kQX5hY7rygQWl5ZhN7yBYp1j1+SEKnHoqb6fUIg4l/KLUw7Yg+99TCJ0Fu/RPEOitTjMVMLIZADgU056jRaRYTeKPzVDS5Srw5b9SwE2oqACL2tK1OCXyL1EkBUF0KgQwiI0Du0WCmuitRTUFObLiPAc35WRYQ+AysvUp+BRU6Y4iy/PLThiv0fpHbbtqVF6G1bkYr8EalXBKy6bR0CsRF6xKdcxq2brOOQCN0BpM9ZkXqfV1dzIwKxZN431ETofVvRjPmI1DMAUvFMIRARnfMfZI/bDo4Ive0rVIF/IvUKQO1gl7HRbBf2mit8LzDuwhKv7IKT03zEV5HnppWnlr397Eszmz734H0y67S1giH10Nek+TMBzz7lvLa6L7+EgBDwINB5Qsec1nvmVdh0zMF7Z/aRp05mJw1WyEPqeW5sDU5BQwuBJQjEPnUsaTw90/pvidJ9bblMX8TelxpSD0206zet0Lxkj3+BGLPf3BS+sYTehW2kGCxF6DFo9bRuFqn3dNqalhAYRNykxl2AS4TehVWqwUeReg0ga4hKEdiwYUNl/XfhEy6cfB/20JctYpULu2ywHhkMqYdelPZoqjM/lditiYhItjPY9nFOvST0ubm5zpxUbXNUpN62FanGn9iP91XjRbm9VniTGpfraXW9aculOmw727Mh9c5OQI6XjkAXotlYQo8AqROfcOF8ROgRqzpLVUXqs7Ta3Z9ryjbr+vWVfOK5UTBF6I3C3+7BRertXp8i3lUYzRZxq7a2kU8c49ocKziQCL0ggH1vLlLv5wrHEnrbP68d+94shtC78gkXnqki9H5er6XOSqReKpyd7CyGALswwYgbVHWfhawAKBF6BaD2sUuReh9XtR9zStk/79sNyqykCN0goWMmAiL1TIg6USF2u6Vv5Bc5n3EnFnXipAi9S6vVAl9F6i1YhIIu9O0z6No/v+2EEKHfhoVSOREQqecEqifVIiPaWmedst3S1/1zAi9Cr/X0689gIvXurmXslkt3Z+r3vM03KL/H+a0i9PxYqaaDgEjdAaQj2VhCj4hoa0cgdrslpj4+rjhX+4QKDihCLwjgrDcXqff/DGhrRJuy3dL31RKh932Fa5ifSL0GkEsaok8kGBNtG/givu7fqc+fm/mJ0A0SOhZCQKReCL7WNk4hzTomE7ttRJ/aOpcy8RKhl4nmjPclUp/xE6DG6ad89DLmXUAX988Jvwi9xpNwFoYSqbd7lfsSpcbOg+8BIt4FdHK7hWeeCL3d118nvSOp92mvtpOLUJLTEXvOJY2Y3U3KuRVB5tkOtLjGsMW+5XJtHuJWxOOSa1K+RgR48XT939g98KVnTUXsghMPmVrexsKUpyfP5dX41FKu75h5oP/OEogi9MZPz3450Acy79eK3Dab2H3nNka1KdF55PZMZ7dbuNIi9NvOd6UKIiAyLwhgxc0ZocdIGwk9kpxjprtQF8H5XHSjFjUQobdoMbrsisi8/asXS+htm1FKdM45RLwHGLdtzrH+iNBjEVP9ZQiIzJdB0jpDCplHEGEt802ZQ2REv6mWiVQ4iAi9QnBnoWuReTdWOXb/vG2zYnSeQugxN6Wub7dwzUTobTtzO+SPyLw7ixVLhpGRbSuBiJxDp1+GmgUQoRskdIxCQGQeBVfjlWMJvXGHLQcYnUeS80LrmOjcGq7TyZWd9l7ON4KAyDwM+7p165YUEquyJOar6/aYKdstbSLDlJtR7A2gD9stXPOhvfBdTOuLRfWu2qyQeeoXizr8nZToE6mMm1VWHyTzFEKP+SIRJr6hL4SuCD36NJ7dBrNC5rO7wnEzTyFad4Qy+nD7nNXonDhoD909G5T3IiAy98IiYwsRiNwu6sXLULMMInSDhI5BBETmQWhU0DIEZjk651KI0Ft2QrbNHZF521ZE/kxDYJajc+IiQp92dsx4mch8xk+Ajk1/1qNzLpcIvWMnbV3uiszrQlrjlIXArEfnxFGEXtbZ1KN+ROY9WswZmYqi81sXupcfW4xd3D6d80XnLjLv09kwG3PhOa/o/Na17uUXi2bjNPbPssgXW0Tmt2GqLxbdhkXbU5FfIhrgGuk874XWRFsuIWRmzC4yn7EF78l0E55Ie/W5c3cZe7nl4k5S+ekIiMyn4xNT6v4v1ZTfUQmNF/Otypi6ofG6YI/daunLV/xDayNCDyEzI/YsMj//8msH+6/eeUbQKD5N4mmLm7fLYtN5ySvlt8MT9qEHZdw0Unw1uCVE52PTtq/HPhB6JY9Qbz/70vWhRT/m4L0XilAnVKUWu/EjdbAsMn/2KecNDli9iwg9FeCG2qUQbd6bhT2lojeromQe6fMGROdj2/8+pnv7cqDoYq05/sz5UB8XnHjIQlHWi7NQ+7Lsxg+7v7zve/KQ+fmXXTt47sH7DIreOGz/upLOWlsf9m2ZW95zwPibEp2btkWOsX7aY+lFqI3GbWm9FL0Ni5lJ5SXzmQGkRxNl1NsFcX83PsZn9z1FjrbdACXHRLKqiNCzEOpZuci8ZwvqTCdhXzn2M9zOiPFZknnKthBH4vx4DkfIBjwJzEXU73RVEXqnly/OeZF5HF5dq50SnafcAIrgUvO+OV0dF/G3a21F6F1bsUR/ReaJwHWoWQo5R75YLIQGyTzFRzNogq+Mzsem/SwcRegzsMoi8/4vckp0Hrl1UQjEomSeciOYpa0WszgidINET49FyXz/e+oz6D09NQZ1EXoZZJ4Qna/r67pNm5cIfRo6HS8rSuYdn/7MuM8XjCkRbAJJRmPaEJnP3FaLWRgRukGiZ0eRec8WdMp0Un5eIOUGMMUFb1FRMmenCTcdkvmc16EZMIrQe7jIIvMeLuqUKaWQcwJRTvFgeVEZZJ7weXP+kuLccm9mxyJC79lai8x7tqAZ0yFxxkrKDSBmjLLInOdypMzkvrmNkQjdRqMH6WlRDX+bhV/nl/QDgTbunZdB5rzhJJD5zO6b22ezCN1Go8dpkXn/Frdte+dlkXnCdtBM75vbZ3Yffm3Rno/SHgRE5h5QOm4qgzzLhKDI1/mNH4zME8h85vfNDX48KkK30ehhWmTew0XFlFJ+C4XbGCmEmYVgk2QO32Z+39xeHxG6jUbP0iLzni3oZDqMzlMJvUxE6AM+VZLki+1HamSOPrRvbgOJtAjdAaQvWZF5X1Zy+TxSPqVSgDSXOwALbypFfgLXdFrAL+2bGxCto/bQLTD6khSZ92Ull8+DRNq0lLHFwjmIzMtfSUXo5WPaaI8i80bhr3Tw1BehBYhzyXzK2mJhpwV8UmS+ZFWWZkToS/HodE5k3unly3SeJJgiZbwILWuLhf6LzFNWMV8bbbnkw6n1tUTmrV+iQg6mbrWk3gSMs4zKOTaPZUgBMh/jBexcGT70uQ8Reg9WV2Teg0WcMoXUrRZ2WSQ6LzKubzr8FnPCN0DZFclcH0/0gerYROgOIF3Lisy7tmLx/qZG2antyo7KOeMCZM7mzb8JphcdEO2hd2CRQi6KzEPI9Mee+tHAlK0NEjnHK+tTLFwFRuQFyXwdovNxf1a02pkoQq8W30p71w9tVQpv450X2buO3Wope3uF4BkyLwCkyDwSPEXokYCpuhCoA4EiBBuz1WKi8pg2eebP/qb98mdGH2OUi8wzQPIVK0L3oSKbEGgQgaJknic6r2Kf3EBWcItFL0ANkAlHEXoCaGoiBKpCoAiZ06csMq+SyEvYYhGZFzyxtOVSEEA1FwJlIVCUzKdtm5itlTJfeNrzLrjFwq424OWnPppog5qQVoSeAJqaCIGyESiDzH3ReZUROTFgVM5xeSwgJPO5Au3VdIKACF2nghBoGIGiZG5I1UyjahI343DcAi8+TTcic4NECUcRegkgqgshkIpAUTLnuCRVkjiF/Zn0gqGCP+YGUjAqX3BXkXm5CyRCLxfPXvS2/z13XpzH/qtvSy8alSiMAEm3DPIlqVa1L+6bJPfKfVs7vrpTbGOUMTLnUVIiAiL0EsHsQlc2WR+wepeBnRd517OCZUTlxtOqo3EzTolRuT7JYkCt4ChCrwDUJrq0iZlETbFtIusmVmXpmGVF5Ut7rTZXIpHTUe2XV7tcAxF6xQCX0b1NzIqqy0C03j66SOREqKTtFXY1hmqLhUhULCL0igHO6t6QtaLqLKS6VW62QsrYJ6975iVH5dpiqXEBRegVgW2Imt2LrCsCuYXdGgI3hN5CF4MulUzkHEdbLEG0qykYVtNtv3qdh/hmxJ+v7eMWyPmXX7s4XfOLjt+4/FfLbIuGGUvwZv3uow9cNmuSOD9x0jWpgMjHwEBbLA2cCIrQC4Duu6gLdNdIU5L3287+4cLYhrwbcaRDg5onrg657HW1xD1yu39F5TYaNadF6DUDXvFwY6v/TUjb+fXIj6DLRES+DJIkw6ZNhLz9UhGRjzFzReUNL78IveEFyDn82KpnWGPRNszxBY3JrtHI6mchqY8zuohk5485eO/sSi2rUcG2ij3DdXnOQbuB0tUgMKym2371GtpDL2mWY6ufJVF12RdJaB5vP/vSxW0XyxclPQg89+B9BiFCx3p5WjRnMiROD5iuQDZgznMV9KsuExFQhJ4IXM5m40m9pKg65xgx1ejPyG1AguJLT229uMgszfNlaIjM+emWtogh8opInNMcQ0nmPEpahEC7QooWAWO74olsx1Z5W8jacsmfxDxGKNnoLx0MHvjSs0JFsgOBC048JIhDnb+n4nOiBhI3wyoqN0i08ChCz7EoEyIc9CEiwVxI6KPQtPlRTEXqS9EJfUzR1Crzt1lMn1lHEjh17dq1C8es+iWUi8hLALHqLkToVSPcsv6zonS6qz312xZt2p65qYUbvUlWdmyAwM1cROQGiQ4cqz8TOwDCrLmYh9SJCYmdMkv76+YbviTyPJ8Aqio6J4FTSvhvQAv9RP4Zoz6JnEdJhxAQoXdoscp0FaQ+h/742XRJIgJFydyQNo/cOqEYW6JLRZuN0YGIvCiKDbYXoTcIftNDi9TTV8Al8xARu/aWELc78TEMInIXlQ7mRegdXLQyXRapl4lm5/oaw2MReeeWLeywCD2MzUyViNhnZrnHmKlIvKfLLULv6cKmTAukPkI7qvbWAUKPZDyZi4i8R4vqm4oI3YeKbINJxE4kbn1bN+Wz64KrtQiM4ZlIvLXLU75jIvTyMVWPFSFg3WT0BOHHeDwxi8T9+PTeKkLv/RL3d4Ii+IW1HePvBqaG+tw4YZhpEaHP9PL3Z/LW/j8n1ecIfoz5icC5ypJlCIjQl0EiQx8QcAie7wFGHZzXeOKzCLyDi9eEyyL0JlDXmI0h4CF6+jJqzKHb/qvUJvgwph/aOiEKkhQEROgpqKlN7xCYED3nNfJMznzSxy7y1RvbFSZpErUrYxpE3C4sygsBISAEhIAQEAJCQAgIASEgBISAEBACQkAICAEhIASEgBAQAkJACAgBISAEhIAQEAJCQAgIASEgBISAEBACQkAICAEhIASEgBAQAkJACAgBISAEhIAQEAJCQAgIASEgBISAEBACQkAICAEhIASEgBAQAkJACAgBISAEhIAQEAJCQAgIASEgBISAEBACQkAICAEhIASEgBAQAkJACAgBISAEhIAQEAJCQAgIASEgBISAEBACQkAICAEhIASEgBAQAkJACAgBISAEhIAQEAJCQAgIASEgBISAEBACQkAICAEhIASEgBAQAkJACAgBISAEhIAQEAJCQAgIASEgBISAEBACQkAICAEhIASEgBAQAkJACAgBISAEhIAQEAJCQAgIASEgBISAEBACQkAICAEhIAT6hcBOmM52PZrS7TCX3Xs0H02lRASGJfYV6movFOwXKvTYb4DtWujPoD/2lKeYtkejQwMNfwD7hYEymh8I3XtKeUrRL9DoK4GGRXwNdGmZn3PK1vfffo+7rlg53O3G4ZZrv3/St4Dx3BarxrRkXWt5MJy4vePIdch/wbG52d1geB70vtDV0HtCd4bOQ38CvRT6Q+hp0HOhqbISDe8DXWPpXZG+BvpL6E+h9PUc6E3QVKHvT4VyrHtPjnviOIQSD56734N+H/pF6Feh04T4PNJT4Q+wfc5j95nuBuOBnoLNsH1zYt8Vx7WTdNED1+4zUBtH3tAekdDx79DmauiPoL8NtCfODwiUfRn2qwJltplzJwaucGyeE52Wf4L3XJQUvRLt/hV6F2gRORKNQ+NnXQSnTmkb6jPLPo1MivjqxWjvF5y57QOO/+xz9z3uzHOhW9Ycf+a80X2PP/NP+x5/xnf2Pe6M96954ad5Mk+TutaS5OtiyJtgSHgTfDmUF6zbLpQ/C3UPgMbKo9BgMzTUr23/NeqdCGVUHStPQwPeHOz+stLvQv07TRnoLwP93ZzRzu7yXwJ9nGJVenygTpb/oXLeRGx5MjKhunnsnO950MfanU7SR+EY6sOeo6fpgml3/L0+0McHQo3Ksq8oq6OK+iGR/yP0MugrC4zBiyMkD0UBI7m2SKm+7vviz67efrvBuSsGK946HA4eBmV0tyjIbAfTvsPh8Kj5bVZ+Z99jz3jd7sedlkJAi30GEmWtpdv9LjBcBH0NlNsreYUX89ehz8/ZYEfUexv0bOif5WxzR9Q7Hvpd6LqcbfZCvc9DefEzoo6RZ6Py96BHBhrxqfDnnrKtYHu0x+4zHeozwnZ6wN5GM+f7EOiZ0JOg20CNfBCJb5mMc3wG8ns4Njf7Ahi2dY3I3wQtwmGeLpeb2k7oxuMdkNgAfb0xRBz56POYjPp8rG2DlOrr3i/4wO2HWw2/CNLeL8/kQOzbDFcMX3bnwa6fRX00q0SKrKXPoffAuNpXkNP2JtR7VEZdEviF0GOgKbjcHe2I6cOg04SRKB/r85Krr687w/gh6HM9hVtg+6jHTtMhAbtt5jx82xFXwT62K3YkzbU8FkoSN8LonDdhn5CoWT8kDIR8uLM+o/vLmahSukLoBoPjkPgnk8l5/J+ot3VG3bYQeqm+7rDtnU4eDId7Zcx9WTGi+BG2YF68rKBcQ8pauh4wuubjfUiuR8EvQ4UT+0ocSXKrJnn3sB0MH4eucgsi87yRnQG9R6AdnwBI+lkRIJvfwj8Z8haU+wKZ0wPt+MRCgpsmIdL/GBrl8Wla302WHYHBD7Uc+C+kuRY+ORrGXXwFsPEJie89XPk9DK9yjVXkeTI3JZ/BwD+1BufNhSc7IwBGAiGZQwEjkCtCFRz7tC0MU/U+SDCK9T1qfRX2aY/yh6F8W6grn4YhdJJf5Fae5Iv6utjt6uecfof5wfAo7xU6P7hpfji4cDiYv3kwP3wQLuPlN7zh8DXYrvnUhW98XJ6ooq61XJzfJPFM1zDJk2BeBzXrya2L/aF/DX0O1BXuOx8BPcktQJ79PNhjp4nRHLdgzoVeCL0rlOcv92F3hLrCcU6APtMtQJ6BCl/A+4TjvBl6FvR86O+g+0IfAv0/UEb2rmwFwzuhe0NvtAp5Pv8E6l5ju8P2IKjBDMllYpOeXfgROzMlfTHKvj+l3FfEuXO+eeRLqOS7traBfVfow6E8F3zyahjPtAq4HryBEUdbGIX/I3S9bUSa9V7s2Ez2ZCR+aTJVHpskdJ7YPDl9wr3Ht0F9e4GMmEIXhdvXahi4iHmEZOo7mfmoRA3Jd1HAG4IrjLbtC8ktd/Nl+LrY5w633+EIRNrLbjTz84NLbpi/Ze0PTjr8GlZe86LP7DdYueI/EcnvudgYCdwIttuCSB3JPITO9ah6LTHEEuFNiKTmyodgeKpjvBr5sybKPWZeYK74zpPdUekYt+IkfwOOz4D6yOwk2E+D+vp8OuwnQi+BGtkZiReajHP8LfK8QXzWsfNcpX4S+jHoI6CukLSfDeW1ZIQEySeSlxiDdSRh+64BViEpPooJRxiUfdmxhbJvRsE7QoUl2HkDe/+Ufsh33F7htekKzyVeL1xXCtfnXdCjmXHkBchzja+z7AwIVll5k+S5x7q1yIpaRokf5DdowosyBMQTUUZizxL2kVeejIpN4lGur8PhQ92Jg8znb7r5hsN+8IZbyZzl33nT4d/a4r+4EXMM17h9JOTLWkt36AfAsOyGBdv73IpO/o3Ik4RcebhrQJ4k6zvP+OT1WKiPzGFeeInP8p8w4wjPMZ6/tvCpYSfbMEljaRZeprpkble9CpmDoN+wjVb6WCttkqebhHNkRBqSR6JgR08hbw68SXRBboaTDNx+4XGWZH9fx84o/PeOjVk+aR3j2I938ib7GiRs4jf2So5NEljWhHiShADliXVwVgco5+K5cgUM/+YakWeEOvLY6zKV6isi7D9zHYftv7/3pr/Z7Nqvv2H4aZK9a8fJUQahs9sy1tJ1jxeVTxhVZ8l7UOHbjpLkt3caPsHJmyyj4rHJBI68iF8XKHuIYw+dyyRL+pklN6HCXKDSPWHfyyk7D/nNjo3ZA6EhXBm9++QjPmOLbST1bwb8c7djrkK9fwnU5RPOdpOydTg+2FNvM2z205GnSrmmNhM6Z/pHKC8en9zfZ7RsBPg+Vt4kP4EE1ScxUbKvfaqtfF/nl+2RklUv8zl43bbXrHQ/zrhQbz54cfu6ybIVWUtf39/xGWH7V2iIfEyT9Ujs5+j+yP/JVMCRN4Z7W3k7ebKdmZL+MMo+B/28o5uRN8KnDN/TAaPzE0ylHMczUSdEVCQcV3izcGUrGB7tGid5H6Y/QhlvDl0TRuM+4U3dFa71z1wj8neBPmtiD0Xn/4zyGyd1ajmEJlbL4DkHOQv1nu6pe3ePzTb5Il6Wfwz6NeivoLtAbXkiMs+Hmn00u6zKdOm+Yv/7FVvNz6+2nZ4fbrnAzpv0roNdDzRp53i5ky+aTV1L37jXwHgF9B5OId+/nAHlzYskdzb0S1Bu/cSIj2TZ/iLoV3N29GvUOySj7gNQbiI9uyoj80tsQ470B1GHwYErvFnxqcSWjyDjIyL6yzJbeB75bm6hrRu7rZ2+HzK+vX67jp0mGX7dNpSQ5hOI73z/Hey+852ByCug74W68lIYeC481i1AngHHf3jslZq6QOg/DyDgXsh2NUYaR9qGSZp9nQtFsDr4T6i5wyK5ICSDw6ChCP7WWuX+rcTXi19/2MdzuTmaW7liMH+i7xNrW4bz38vVR/5KKWs5rXdeTKHz4J4oe8FEt+B4IZTEfg50DL0aOk32DBT+IGBPNe8aaLg5YJ9mDrVxtxLYB6N5EtiSmz7yJKchlNeIkUNNwjm6xO8UL8u+EBZqXrkFFcviKM6JNzYSM69zV/4DhlAgdxrKXgR9oNNoFfIMDtm3K/8bBp53tcqKWkdLG+yXgWbTIvSD0OaunnYkanOiftJTTtNTA/aqzI36uu8BB5yIb4n6ojogNc/otkxJWctp4/Miu2JahUkZz3NejP8APR16JXQMJeHvAPXJLj4jbL7H8kDVXObQOJtztV5aKdRm56XVFnPEwpXdYdjPMTJqd4U3tm+7xobzb8b4fDJzlVsmf4B+HXp/qCu8ub/ONVp5ErPvaYZVtrXqmeQmJPh0WLvwRG+7XBtwMHQhsnpoC8OOWklWv/f0zQj9Dh57VaZGfL3/k07fZs1xZ5yGb4e+2DcxvCT9wkUnHT72lRWwpazltOF+gcLHQa+bVslTxqeitVASAInpiVBXQiRYNqFzC8AnP/EZM2wh30JzCUXYNoFvjzHXecYNtfVUrc3EyHu1R/eAjfPwyS9h5PpnBQbkC74PySMvy1OpijpdIPQdAxMPPb5z4Z7gacOFO8eyX4+0b4G2g913gVtNS0s24it/32XFqtt9BZ89f7pvJniEuX7Lllu4P1i2xK5lnvEvRKU10LdCuaaxsicakJwOchry0xA+uclnLGC7MdB2WsASaBIkrdAY/42OeENz5RDLMEKa56krxKwPwk8YcSsujzBKvyWj4qdQzm2YRqSs/akqnd8l0HkoGjkc9XfytOEWi7unxS2YIzx1nwrbezz2sk21+7rm2M8cMVix4l2YiP8phN8iHWw54uKTD/e+QC0IQOxa5h1uMyo+H8qXV4+GPmaie+CYRxixfwi6H9R8ooGP7T65m89YwParQNtVAfs0858FCq8J2Gk+HUrcbOFLQ0b1fKI61C6YpC/C8WKPPcvENt/PqmSVh/a0rSqFk19FD3wC+XqOnjjv90L/PlCXZP/yQFkt5i4Q+gMCSJgLzy0+yjVM8nykOsAp496ZT7jA3IO/0ldYoq1OX4f4Cd1X47tTwRMO2yzXzg9vecpFrz/8CyXO0e4qdi3ttnnSv0YlRo4metwH6YdBHw59FHRvaEjujIJnQF87qfDDQMV7BOyp5hChh8h52jihNqEx2JeP0HmD443xw1AfoRt8URwlb0btd0S1iKvMG5d7TW8PG7e1/AHMre9QPoryVdB5aJa8EhWeAr2dp+KpsH3XY6/N1AVC5yORT37qMTICfKzHTtNrJhooXmLmVtSR0DcusZabqc3Xu7349O3vtHLH9w0HgycFpzA/+Da+RfoE3xePgm3iC2LWMr735S1IytTTJkWrcXwO9HnQnSY2+/AgK3OplbaT7CNG/tJTmcRjLvwfe8ppuj+U56H7VMmykOwbKLgiYKf5Qih9uS8zlhyC9LehvvmmErrVfSXJl6DX9wd63g12biMe5ynnTfoR0C95ylwTg7xPQ5/qFiD/Lo+tVhNPmDYL76ohgj7f4zgJa2uPPcX0tJRGEW1q8fVex35m151X3m4cInN+QxRy8h9vGDysYjKPXcssKEeoQGK29VkZjS5H+cugfwW9yVP3zy0bSfBGK2+SD0bCJn5j9x0fCuM5Hj3RqrwZaR+p3w12RoJ55fao+L8ClccBuzGfbhLW8TFIH2blTZIkz5tk1+RqOHw8NETa9tpnzc137rBNyJ7VX2nlbSd0Xnx39MyWEQX3vlw5yjUUyPPCvXeB9llNa/F1u+FW78HHZB/icwZE/gvoYy486bBjL33LoTf46pRoi13LrKGfjgr/7ijmOuDWSZZ8HRW+56lkn2vcD+UNwCfrfUaP7e88Npo+5dg3OnmT/Wck8l6j/4C63FpwhTelc12jk/cR+u6o8wqnHrPchumynBlwfteAvVPmvCdLE5N6Mgb1PR7Rl3d5HNoLtod77EVMvseqIv2ZtrX4+oCXfPbv8JWHw82g9hFE/sU/3fCHNRe94bCzbXtF6di1zOOG7wmN7fKs2Y6ody/PIIw+bXm7nbHS/wNpL65Wnf2R9hE6bxR8ZLcltIXBgOIE6NCu7ElzrGM9dpo+A/1joMyYL0HiIpOxjr4bhI/8rSatT14R8NC+mQeqtN/ctj30bQDZfaAvgD4LypczrjDiOM01Is/HU9+J/33YfSer3cVuyDzSNkzSJIe80ZinedBUua+rXvTJO+K/Fb3J68H8/Mcv/N1PnzJ4x5Ugl7kV3joLxjm+JKKmSJG1zDPeNwOVuF4/hn4yUL4D7CdDt/WUf8OxvRX550F95M8o+5XQ10JdjI6E7Z1Q3/m7CfZroLZ8DpnzoAfaxkn6/+DI/fS/hV43sdmHZyDDG892tnGSpl+v8th9JhL1A3wFlo0+brbysck7oMEusY1Q/3roHxLa+Zr8xmeEzccdgartNTdJ6GPAYkcOBJQflZpCMCi99ceX3AuC9tAWxnEo+ywrTBGeaNxjc/ff94aNFxlP5DKlcl93XLn1E/GloZ28Tg+HT1xzh7vfODj+7t5iY5wfnPHdC19/2P1MfspxjLIy13LKUItF30GKF+cdFy23Jpjnx1FJ6CTPH0JJbHeG3hNKst0H6pMvOcabkH8p9FOOnVmep6+GPgv6Vegl0HtAub/uI2aYF/ZYSdA+4fbK56E+Yvlr2DmPr0B50/kN9M+hB0D3g4bkYyi4IFTo2EnoJzg2N1t0u+VEdEiNlf+HBn8V2yhQ/+aAPYt3As3aZW6S0G8HKKgxci4qv9zTgBfRfT12nvhf8Nhd029h2Ah9tFuAPKP0Mgm9Fl9XDIb0u6jkXZ8y1zKvz4zaeGPkloKPBP8Gdmpe+QAqfs5T+dOwjaEjqE94k6DmEQYXXwtUPBv2DdC5QPnusD9hooEqS8zfRS70knRJxUmGT7IXQB/oK4SNN8WPBsqqNpdJtjxvfLK9z9g1W5lAVT33b2CAI6C+O+zTAoN/CvYbA2WumXV98mQYt/IVJNrq8nVa5JboemnNpq1lzCBnoPJcTINA3YthPzpQRjOjcEbIRYRk+OaMDk5A+akZdfIU/wyVuMf/2zyVrTofsdJu8sswsN+uy5WBCayB3RcYBKq309wFQr8J0PFCeATUtxicA/ekfcLHyLzCSIxRiCuMjB7lGhPztfjK/yeKr/XfMdHHKptlrWXK2K9CI0a2vv3lPP0xKif52VtGbrvNMPwF9By3IEf+BtQ5Aco98Czh+cebBwOXn2dV9pRvge2t0PtBL/OUZ5mmReDTyD6r3zaV86ZEnFzZH4bnuMau5UkwVUveCJl+3AL9PZSPf9w3Ow56N+gLoaF+eGfdA+rKr2H4omuckucF9PVA+WMDdpp9fvEpwndzqMXXHbbfdjt8upxYFpP5IdfCFt9c7XI7nbKWpr1vHJ+N9YnzHHQV9LVQ12eYvMKnhIOgh0B/5K2x1Hg1smuhT4Iyos8jZ6HS/aHroaFHfV8/H4eRpPw2qI98fG0uhJE3nedDf+erkMN2Kep801OPa/lRjz1k4o27THHXPtS/W8/nA2/c3FryycE+o8cWGj9k93RRjanzjxjVwKJeO4zATvD9XtC9JroKx52hP4VeDr1sciR5FRHum/NGvzf0ztA7QRkUXAL97kQ341hUuLe7D/Te0PtMjgzE+LTKwOd7k+NVOEqEgBAQAkJACAgBISAEhIAQEAJCQAgIASEgBISAEBACQkAICAEhIASEgBAQAkJACAgBISAEhIAQEAJCQAgIASEgBISAEBACQkAICAEhIASEgBAQAkJACAgBISAEhIAQEAJCQAgIASEgBISAEBACQkAICAEhIASEgBAQAkKACJT5jxuEqBAQArOHAH/dkr/+yJ+MljSMgH4+t5kF2BrD/iX0MOjDoXeB8idYuR78iVf+tCv1B9APQ1N/3xpNF4U/w3roYm5pguPw97R9wn9Jxp+ILVN+gc6+MulwVxz5O+NlyDw64b+k4+9S87fn+bOzrvDnZkO/Z74Dyvj76D5hv6Hf274ryriOrvDnbS9yjVY+dU34U7qhf+j8ZZTl+SldYk7sXbkahnNc4yS/G47Pg94XuhrKnxDmTxMT959Aec7+EHoa9FyoRAj0GgES9pFQkjYvgjzKf4j9Iui20CLCcUPjfXVKx6dOaRfqL8tuX+yPL7n/u03m8sZAv/znESFZh4KQ7weEGsF+bKDdiVPasCh1TY4KjEffT2HHGcL/wnU91DfXD3ja8sbzcigDC18bn43/3GMaZiiWCIHuIsBH089DfSd/HtuP0HZtgekzwpw2DqMtn5wK47R2KWV1EPpjAn5f6ZvkxBYiZs6RkWlIPoECHw6PCjWY2FPXhIHBNwNjkqj3mPQfOrw60JZPIIy8bdkFGf5TEN/88tj4H5QkQqBXCDAi+jY0zwUwrQ7/rd69E5DhozUv1ml9/3Og31Mz2k3rM1RWB6FvB7/578Z8PoRuXh8M1Gcf74WGhFsc7ji/h22bUAPYi6wJuz0I6o5p8m9ghYDcDvZfQU1d+/gWTxvzv3btejFpbn9l3dg8w8okBNqJwFZwaxM0z0Vwc4563KPkvmWMMLrMGp//Ns0np8KY1Ta2vA5C51zODPj+tyz0CDEIzeUiT32auE/va8Poe5oUWRPTbyjC582EkbVP/hFGn7/Xwc73OLYwuvbVNbY/odx3MzPl5ngt6q2CSipGYGXF/av7wYCR7yMDQPCE/zfoGdDzob+F3h+6H/R4KF8+ubI3DG+BPs0tmJLPU5f/r5Ljfsvph/vr3C4KyWEo2NZTyMjuFo+dphA52tUvRoYvFWOEeHKf18jnkDjEZKzjXyDNF3e27IjMvWyDk+ZasA7J0hb25ZOzfEbLVmRNTDf/hATnx6DBFkbhJO71thFp1nuxYzPZk5H4pclMjs908ib7MSReBzXnym5I7w/9a+hzoK7cCYYjoCe5BcoLgS4hsDucDb18uhZlh06ZDC/K90FNlGMfSSrcUsgj3BO1205LT3tUD4313UD/07Yb7L4eH2jvIwa7XZ50KHq+yNOYxDwNG5b5bszvDLRz96LtIctck7cHxuf55d6InxyoSyJ3624Nm+/c/Q/YpwlvGD4cPzGtkcqEQBcQCL18ugnO3y/HBPjyi+Tju0AOz9GeVV4RaO/r86eou4KNIqTNhM5pXAp157oFNkaNtrwAGbeemz/WbjBJX+Jp9wNPPdtU5powaOB2iesr83zKs+V8ZHz1XmhXmqQfFKj7GE9d1/QTT1t+VFVSMQKxF2/F7vSu+78PzOg02EkEWcKL718ClaZF93YT36P9Fajwb3alSXpPHEcee5dN3HZxhTfKhzlGbjfZwhsBn4RsOcDOIL0zlFtVrvjGtOuUuSZXoePQOfISlJknuXVIP9h2YpLejOPbPHb3hmeq8AaSJe9BBX4IwFYGC9tnNVS5EGgrArzQfdEQP22yKsLplai7r0fvkqMPXsA+H94IOy9wX9m7cvRrV2l7hM49ft88X2tPAukLnHofRZ7vD+y2lyNvy+OQsctNetrNtoo12QF+kDDN+PbxuROHQy+Ij5qUu4ddA/39GvZp83P7UV4I9AIB7gHbF5ZJn1Xj7E4O+PAXsPMF2TWecl6wvpecMHulKkJ/E0Z7RIQ+xOvdYMB3Eb694E1WfUaxN0HNGvH4CujbHRvtu0CN8MWg3YZpjkWCDUlVa/JMDOj6wvyPoH8O5TaTW86b2LSn9B972pg+LkXZm6Hc+rsjVCIEeo3AiZidOfnt41trmjUJ++ceH34G23DiAx+Nbd9M+gmT8jyHqgjd+JL3ePMUZ7/gmecfYeOLPwq3UtxxSFSMbl37Y2Ezcg4SbjnHCkmVa0Ji/m+o6w/zvhsa7VmR9ocD/blj8NNMHPst0CdBd4NKGkCAj/OSahCwIzl7BEY9Ibk7Ctx92lDdq1DwlVAh7AdB7+op56cNeEFSPgl91kJq6Z+nItunTyV8DvM5eOkUF/Zz94PtPCiPrnwTBmLsCteH/W0D9a0Vy0JS5ZowAj8e6ruh+J64NqEut2GmyYtQyHcN95hWCWW8mTxwov+AIwn+y9CPQ98N5c1TIgQ6jQDJ0o1kmD9yyqx4Mfja+Gxfm9IPi06F+tqNYDfCrYbroG69P8F2B1Mp49iFCP2+njlyzi+ZzO0Up/xnEzuJ8Ean7D8nZQ917AbD+03KfYdTA21GVuWia3JWYAzjnznS/zyyLyr9DmraxR65t//EPAOpTnEEeGeVVIMAH699QoKoWrbHAE/wDPJL2M6x7Ncj/Tkrb5IklT5dhLzp+J6M+C6Bst+th8W/509SN+B44aL11oSJyk1bu/gnyFxiG6x0XcsYDBwAAAaJSURBVGvCKJ0R8jT5FAqzAgLTnvNfA30rlOdLrOyJBh+B8ulEUjEC2nKpDuBrA12vCtjLNHP/dydPh3xq4KO5LdxaOcI2TNLcduEee1NyMQb+fsTgJN9pwhvX0U6FhyO/NZRRqC3fsDJM24R/F+TvBvURuu/maLqqa00uwoDvhf69Gdg5kuxf7tiysptR4flQvih+NPQxE90DxzzC4OZDUOJonn7ytFOdSARE6JGARVQPEfrqiD5Sqx4VaHgF7CbCNFWuNgnnuA75u0KvdOx1Zd+Mgd5R4mDcinAJneQ8gm4LtcUldLcdv3Tj4sj20wi9zjV5JXx5CvR2dMqRU5HnE0uK/BqNGG1TKftAHwbljfFR0L2hIbkzCp4BfW2oguxCoM0IvBDO+fYbz5zi9H1QxkjI1R95+go9Mu+Cujd66vt8ybK9GP1kCcnB1w9fGuaRx6OSr/1z8jSOqMMnFh8up3nGJ4ZG1iDh+vfvHttNsN3eNHKOda8Jh/8g1PWb+YeysCJhsPJ/ob+D+sb+aEXjqlshUDkCjOJ8JzW/fZj1qQHbuRXIMEp2+zrPrmSlj/HUddvmzZu9ZKv7ZcmuEDod/y9o1twvc2bIp9g/OO2ud/Ls8xxoSOpeE/pxKtQ31wezMIeMUOd5jvo+EeXr6iEw+m6eP/RVlk0IdAEBEjEfUX0X1SciJvDkQB8hQv9yoL7Pjzy2e2f42iVCf2kObD7smW8eTF/uaWdMedrnWQtTJ2tNOO6pUFPfPuYldH7c0G5n0tw6ySPfQSXTxhyvztNQddIRIOlIqkFgC7p9X6Drv4Hd9yLSrX4vGN7hGqfk90LZw6eUpxQ9NaVRS9uclcMv31OJz+Z2Fdo/7+qahOac53zYEeDw3HXl265B+XIR4OOkpDoE3oCu+di6tWeI02F7J5RR42895U+E7U3Q0L6sp8nCi7Chp+D7sPHTD9NkNxQ+0lOBF/B6j71q0x0wAPeeY4XbIdwi8cmFMP4MuqevcGL7hqfMZ7OrXYVMiKz4crKLa/JNe4JWmufCj6GftGx2cgdkToZuaxsn6SwcPU1kEgLtQuA1cMc8cvqOJAM+5r8MyheBr4d+Beqra9t8Wy6XBNo9DvYsIYHeCLXHMOkDpzSuasvFjB17/OIUX1n0LmioT36kj9GlK4w2Q21of5/bwMo3sSYc/lSoz+e8Wy7bof2vA32wX24bvhB6KPQQ6DOgJ0B/APWNS9tjoRIh0GkE+BncjdDQSZ5qdwk99BKWF+U2ORH8fMDPf53Svm2Ezhef04RPPiHMLw40ZIT9myntGIX7pKk1oS+nQn3zzEvo7OMwKLcOff3E2t7PDiXVIqA99GrxZe+M+rhf/jVmEoWfvMgiqqcF+ua3Ahl55xHW9cmTYeSNqQ/CCP7mwERCWwIkr9CeMgnv7EB/XV+TMzCvucDcYsy8UR4d00B10xAQoafhFtvqV2hwEPQjsQ1Rn58W4Jc2QqTBLrmOoSiRe/V55dOoSPJyZXcY6EMf5LeYxFcDEwmRNquHymi/xtNfX9bkVZjbBuh1njnmMfFl8eHQP+aprDrFEBChF8MvpvWfUPlI6DpoiFDs/q5E5gToQ6E/hrrbAXbUvQble0Bd4XZL1p6y3ebnyHzdNljp0P6n7YepzgjYd2Mw5fbxJjtTQtrnj9stScYnoQiddUNlob6aXBP6G8I1ZGcbn3Ad56CroK+F8nsUeYR4HQTl/vqP8jRQneIIDIt3oR4SEdgT7fhCaW8oI+Adob+AXgH9HvQsaOzFhyYSIVApAjuhd74k3muiq3DcGfpT6OVQbg/yeClUIgSEgBAQAkJACAgBISAEhIAQEAJCQAgIASEgBISAEBACQkAICAEhIASEgBAQAkJACAgBISAEhIAQEAJCQAgIASEgBISAEBACQkAICAEhIASEgBAQAkJACAgBISAEhIAQEAJCQAgIASEgBISAEBACQkAICAEhIASEgBAQAkJACAgBISAEhIAQEAJCQAgIASEgBISAEBACQkAICAEhIASEgBAQAkJACAgBISAEhIAQEAJCQAgIASEgBISAEBACQkAICAEhIASEgBAQAkJACAgBISAEhIAQEAJCQAgIASEgBISAEBACQkAICAEhIASEgBAQAkJACAgBISAEhIAQEAJCQAgIASEgBISAEBACQkAICAEhIASEgBAQAkJACAgBISAEhIAQEAJCQAgIASEgBISAEBACQkAIzAIC/x/2EgenrIEDpwAAAABJRU5ErkJggg==;imageBorder=default;imageBackground=default;" vertex="1" parent="77e6c97f196da883-7">
          <mxGeometry x="-110" y="49.999999999999886" width="222" height="229.16" as="geometry" />
        </mxCell>
        <mxCell id="ICng1ieGqrjUcXiE3lIN-31" value="" style="endArrow=classic;html=1;rounded=0;exitX=1;exitY=0.5;exitDx=0;exitDy=0;entryX=0;entryY=0.5;entryDx=0;entryDy=0;edgeStyle=orthogonalEdgeStyle;" parent="77e6c97f196da883-1" source="ICng1ieGqrjUcXiE3lIN-28" target="ICng1ieGqrjUcXiE3lIN-29" edge="1">
          <mxGeometry relative="1" as="geometry">
            <mxPoint x="340" y="300" as="sourcePoint" />
            <mxPoint x="440" y="300" as="targetPoint" />
            <Array as="points">
              <mxPoint x="280" y="280" />
              <mxPoint x="310" y="280" />
              <mxPoint x="310" y="110" />
            </Array>
          </mxGeometry>
        </mxCell>
        <mxCell id="ICng1ieGqrjUcXiE3lIN-32" value="Yes" style="edgeLabel;resizable=0;html=1;align=center;verticalAlign=middle;fontSize=10;" parent="ICng1ieGqrjUcXiE3lIN-31" connectable="0" vertex="1">
          <mxGeometry relative="1" as="geometry">
            <mxPoint x="-10" y="96" as="offset" />
          </mxGeometry>
        </mxCell>
        <mxCell id="ICng1ieGqrjUcXiE3lIN-40" style="edgeStyle=orthogonalEdgeStyle;rounded=0;orthogonalLoop=1;jettySize=auto;html=1;exitX=0.5;exitY=1;exitDx=0;exitDy=0;entryX=0.5;entryY=0;entryDx=0;entryDy=0;fontFamily=Verdana;fontSize=8;" parent="77e6c97f196da883-1" source="ICng1ieGqrjUcXiE3lIN-25" target="ICng1ieGqrjUcXiE3lIN-41" edge="1">
          <mxGeometry relative="1" as="geometry">
            <Array as="points">
              <mxPoint x="410" y="335" />
              <mxPoint x="240" y="335" />
            </Array>
          </mxGeometry>
        </mxCell>
        <mxCell id="ICng1ieGqrjUcXiE3lIN-43" style="edgeStyle=orthogonalEdgeStyle;rounded=0;orthogonalLoop=1;jettySize=auto;html=1;exitX=1;exitY=0.5;exitDx=0;exitDy=0;fontFamily=Verdana;fontSize=8;entryX=0;entryY=0.5;entryDx=0;entryDy=0;" parent="77e6c97f196da883-1" source="ICng1ieGqrjUcXiE3lIN-41" target="ICng1ieGqrjUcXiE3lIN-39" edge="1">
          <mxGeometry relative="1" as="geometry">
            <Array as="points">
              <mxPoint x="510" y="385" />
              <mxPoint x="510" y="385" />
            </Array>
          </mxGeometry>
        </mxCell>
        <mxCell id="ICng1ieGqrjUcXiE3lIN-44" value="No" style="edgeLabel;html=1;align=center;verticalAlign=middle;resizable=0;points=[];fontSize=10;fontFamily=Verdana;" parent="ICng1ieGqrjUcXiE3lIN-43" vertex="1" connectable="0">
          <mxGeometry x="-0.4103" y="-1" relative="1" as="geometry">
            <mxPoint x="-52" y="-1" as="offset" />
          </mxGeometry>
        </mxCell>
        <mxCell id="ICng1ieGqrjUcXiE3lIN-51" style="edgeStyle=orthogonalEdgeStyle;rounded=0;orthogonalLoop=1;jettySize=auto;html=1;exitX=0;exitY=0.5;exitDx=0;exitDy=0;entryX=1;entryY=0.5;entryDx=0;entryDy=0;fontFamily=Verdana;fontSize=8;" parent="77e6c97f196da883-1" source="ICng1ieGqrjUcXiE3lIN-45" target="ICng1ieGqrjUcXiE3lIN-47" edge="1">
          <mxGeometry relative="1" as="geometry" />
        </mxCell>
        <mxCell id="ICng1ieGqrjUcXiE3lIN-57" value="" style="endArrow=classic;html=1;rounded=0;fontFamily=Verdana;fontSize=8;exitX=0.5;exitY=1;exitDx=0;exitDy=0;entryX=0;entryY=0.25;entryDx=0;entryDy=0;edgeStyle=orthogonalEdgeStyle;" parent="77e6c97f196da883-1" source="ICng1ieGqrjUcXiE3lIN-47" target="ICng1ieGqrjUcXiE3lIN-55" edge="1">
          <mxGeometry relative="1" as="geometry">
            <mxPoint x="250" y="460" as="sourcePoint" />
            <mxPoint x="350" y="460" as="targetPoint" />
          </mxGeometry>
        </mxCell>
        <mxCell id="ICng1ieGqrjUcXiE3lIN-58" value="Yes" style="edgeLabel;resizable=0;html=1;align=center;verticalAlign=middle;fontFamily=Verdana;fontSize=10;" parent="ICng1ieGqrjUcXiE3lIN-57" connectable="0" vertex="1">
          <mxGeometry relative="1" as="geometry">
            <mxPoint x="-105" y="-40" as="offset" />
          </mxGeometry>
        </mxCell>
        <mxCell id="ICng1ieGqrjUcXiE3lIN-69" value="" style="endArrow=classic;html=1;rounded=0;fontFamily=Verdana;fontSize=8;exitX=1;exitY=0.5;exitDx=0;exitDy=0;entryX=0;entryY=0.5;entryDx=0;entryDy=0;edgeStyle=orthogonalEdgeStyle;" parent="77e6c97f196da883-1" source="ICng1ieGqrjUcXiE3lIN-59" target="ICng1ieGqrjUcXiE3lIN-73" edge="1">
          <mxGeometry relative="1" as="geometry">
            <mxPoint x="370" y="690" as="sourcePoint" />
            <mxPoint x="470" y="690" as="targetPoint" />
            <Array as="points">
              <mxPoint x="660" y="700" />
              <mxPoint x="660" y="480" />
            </Array>
          </mxGeometry>
        </mxCell>
        <mxCell id="ICng1ieGqrjUcXiE3lIN-70" value="Yes" style="edgeLabel;resizable=0;html=1;align=center;verticalAlign=middle;fontFamily=Verdana;fontSize=10;" parent="ICng1ieGqrjUcXiE3lIN-69" connectable="0" vertex="1">
          <mxGeometry relative="1" as="geometry">
            <mxPoint x="-290" as="offset" />
          </mxGeometry>
        </mxCell>
        <mxCell id="ICng1ieGqrjUcXiE3lIN-72" value="" style="endArrow=none;dashed=1;html=1;rounded=0;fontFamily=Verdana;fontSize=8;entryX=0;entryY=0.25;entryDx=0;entryDy=0;" parent="77e6c97f196da883-1" source="ICng1ieGqrjUcXiE3lIN-45" target="ICng1ieGqrjUcXiE3lIN-65" edge="1">
          <mxGeometry width="50" height="50" relative="1" as="geometry">
            <mxPoint x="570" y="400" as="sourcePoint" />
            <mxPoint x="620" y="350" as="targetPoint" />
          </mxGeometry>
        </mxCell>
        <mxCell id="ICng1ieGqrjUcXiE3lIN-80" style="edgeStyle=orthogonalEdgeStyle;rounded=0;orthogonalLoop=1;jettySize=auto;html=1;exitX=1;exitY=0.5;exitDx=0;exitDy=0;entryX=0;entryY=0.5;entryDx=0;entryDy=0;fontFamily=Verdana;fontSize=8;" parent="77e6c97f196da883-1" source="ICng1ieGqrjUcXiE3lIN-75" target="ICng1ieGqrjUcXiE3lIN-79" edge="1">
          <mxGeometry relative="1" as="geometry">
            <Array as="points">
              <mxPoint x="830" y="670" />
              <mxPoint x="830" y="480" />
            </Array>
          </mxGeometry>
        </mxCell>
        <mxCell id="_pnJBIeOAMV3EheFCgYe-17" value="" style="endArrow=classic;html=1;rounded=0;exitX=1;exitY=0.5;exitDx=0;exitDy=0;entryX=0;entryY=0.5;entryDx=0;entryDy=0;edgeStyle=orthogonalEdgeStyle;" edge="1" parent="77e6c97f196da883-1" source="_pnJBIeOAMV3EheFCgYe-14" target="77e6c97f196da883-15">
          <mxGeometry relative="1" as="geometry">
            <mxPoint x="100" y="510" as="sourcePoint" />
            <mxPoint x="200" y="510" as="targetPoint" />
            <Array as="points">
              <mxPoint x="140" y="490" />
              <mxPoint x="140" y="110" />
            </Array>
          </mxGeometry>
        </mxCell>
        <mxCell id="_pnJBIeOAMV3EheFCgYe-18" value="Assisted" style="edgeLabel;resizable=0;html=1;align=center;verticalAlign=middle;fontSize=10;" connectable="0" vertex="1" parent="_pnJBIeOAMV3EheFCgYe-17">
          <mxGeometry relative="1" as="geometry">
            <mxPoint x="-10" y="180" as="offset" />
          </mxGeometry>
        </mxCell>
        <mxCell id="_pnJBIeOAMV3EheFCgYe-19" value="" style="endArrow=classic;html=1;rounded=0;exitX=0.5;exitY=1;exitDx=0;exitDy=0;entryX=0;entryY=0.75;entryDx=0;entryDy=0;edgeStyle=orthogonalEdgeStyle;" edge="1" parent="77e6c97f196da883-1" source="_pnJBIeOAMV3EheFCgYe-14" target="ICng1ieGqrjUcXiE3lIN-39">
          <mxGeometry relative="1" as="geometry">
            <mxPoint x="80" y="550" as="sourcePoint" />
            <mxPoint x="180" y="550" as="targetPoint" />
            <Array as="points">
              <mxPoint x="70" y="550" />
              <mxPoint x="480" y="550" />
              <mxPoint x="480" y="400" />
            </Array>
          </mxGeometry>
        </mxCell>
        <mxCell id="_pnJBIeOAMV3EheFCgYe-20" value="Self-Service" style="edgeLabel;resizable=0;html=1;align=center;verticalAlign=middle;fontSize=10;" connectable="0" vertex="1" parent="_pnJBIeOAMV3EheFCgYe-19">
          <mxGeometry relative="1" as="geometry">
            <mxPoint x="-248" as="offset" />
          </mxGeometry>
        </mxCell>
        <mxCell id="_pnJBIeOAMV3EheFCgYe-21" style="edgeStyle=orthogonalEdgeStyle;rounded=0;orthogonalLoop=1;jettySize=auto;html=1;exitX=0;exitY=0.5;exitDx=0;exitDy=0;entryX=1;entryY=0.5;entryDx=0;entryDy=0;fontSize=10;fontColor=#FFFFFF;" edge="1" parent="77e6c97f196da883-1" source="ICng1ieGqrjUcXiE3lIN-55" target="ICng1ieGqrjUcXiE3lIN-60">
          <mxGeometry relative="1" as="geometry">
            <Array as="points">
              <mxPoint x="510" y="610" />
            </Array>
          </mxGeometry>
        </mxCell>
        <mxCell id="ICng1ieGqrjUcXiE3lIN-4" value="" style="endArrow=classic;html=1;rounded=0;exitX=0;exitY=0.5;exitDx=0;exitDy=0;entryX=0.5;entryY=0;entryDx=0;entryDy=0;entryPerimeter=0;edgeStyle=orthogonalEdgeStyle;" parent="1" source="77e6c97f196da883-13" target="ICng1ieGqrjUcXiE3lIN-2" edge="1">
          <mxGeometry relative="1" as="geometry">
            <mxPoint x="110" y="520" as="sourcePoint" />
            <mxPoint x="210" y="520" as="targetPoint" />
          </mxGeometry>
        </mxCell>
        <mxCell id="ICng1ieGqrjUcXiE3lIN-5" value="No" style="edgeLabel;resizable=0;html=1;align=center;verticalAlign=middle;fontSize=10;" parent="ICng1ieGqrjUcXiE3lIN-4" connectable="0" vertex="1">
          <mxGeometry relative="1" as="geometry">
            <mxPoint x="-5" y="-193" as="offset" />
          </mxGeometry>
        </mxCell>
        <mxCell id="ICng1ieGqrjUcXiE3lIN-67" value="" style="endArrow=classic;html=1;rounded=0;fontFamily=Verdana;fontSize=8;exitX=0.5;exitY=1;exitDx=0;exitDy=0;" parent="1" source="ICng1ieGqrjUcXiE3lIN-59" target="Co1qwD8KeL7HL2fnkDNT-5" edge="1">
          <mxGeometry relative="1" as="geometry">
            <mxPoint x="310" y="650" as="sourcePoint" />
            <mxPoint x="310" y="825" as="targetPoint" />
          </mxGeometry>
        </mxCell>
        <mxCell id="ICng1ieGqrjUcXiE3lIN-68" value="No" style="edgeLabel;resizable=0;html=1;align=center;verticalAlign=middle;fontFamily=Verdana;fontSize=10;" parent="ICng1ieGqrjUcXiE3lIN-67" connectable="0" vertex="1">
          <mxGeometry relative="1" as="geometry">
            <mxPoint y="-10" as="offset" />
          </mxGeometry>
        </mxCell>
        <mxCell id="ICng1ieGqrjUcXiE3lIN-78" value="&lt;font color=&quot;#ffffff&quot; style=&quot;font-size: 10px;&quot;&gt;Final Delivered Dataset(s) in DataLens&lt;/font&gt;" style="rounded=0;whiteSpace=wrap;html=1;fontFamily=Verdana;fontSize=8;fillColor=#66CC00;" parent="1" vertex="1">
          <mxGeometry x="900" y="830" width="120" height="60" as="geometry" />
        </mxCell>
        <mxCell id="ICng1ieGqrjUcXiE3lIN-83" style="edgeStyle=orthogonalEdgeStyle;rounded=0;orthogonalLoop=1;jettySize=auto;html=1;exitX=0.5;exitY=1;exitDx=0;exitDy=0;entryX=0.5;entryY=0;entryDx=0;entryDy=0;fontFamily=Verdana;fontSize=8;" parent="1" source="ICng1ieGqrjUcXiE3lIN-77" target="ICng1ieGqrjUcXiE3lIN-78" edge="1">
          <mxGeometry relative="1" as="geometry" />
        </mxCell>
        <mxCell id="ICng1ieGqrjUcXiE3lIN-84" value="" style="endArrow=classic;html=1;rounded=0;fontFamily=Verdana;fontSize=8;exitX=1;exitY=0.5;exitDx=0;exitDy=0;entryX=0.75;entryY=0;entryDx=0;entryDy=0;edgeStyle=orthogonalEdgeStyle;" parent="1" source="ICng1ieGqrjUcXiE3lIN-79" target="ICng1ieGqrjUcXiE3lIN-78" edge="1">
          <mxGeometry relative="1" as="geometry">
            <mxPoint x="650" y="550" as="sourcePoint" />
            <mxPoint x="750" y="550" as="targetPoint" />
            <Array as="points">
              <mxPoint x="1020" y="520" />
              <mxPoint x="1020" y="690" />
              <mxPoint x="990" y="690" />
            </Array>
          </mxGeometry>
        </mxCell>
        <mxCell id="ICng1ieGqrjUcXiE3lIN-85" value="One-time" style="edgeLabel;resizable=0;html=1;align=center;verticalAlign=middle;fontFamily=Verdana;fontSize=10;fillColor=#FFFFFF;" parent="ICng1ieGqrjUcXiE3lIN-84" connectable="0" vertex="1">
          <mxGeometry relative="1" as="geometry">
            <mxPoint y="-140" as="offset" />
          </mxGeometry>
        </mxCell>
        <mxCell id="_pnJBIeOAMV3EheFCgYe-9" value="" style="endArrow=classic;html=1;rounded=0;exitX=0;exitY=0.5;exitDx=0;exitDy=0;edgeStyle=orthogonalEdgeStyle;entryX=0.014;entryY=0.491;entryDx=0;entryDy=0;entryPerimeter=0;" edge="1" parent="1" source="ICng1ieGqrjUcXiE3lIN-47" target="Co1qwD8KeL7HL2fnkDNT-5">
          <mxGeometry relative="1" as="geometry">
            <mxPoint x="190" y="590" as="sourcePoint" />
            <mxPoint x="275.21000000000004" y="859.3700000000001" as="targetPoint" />
            <Array as="points">
              <mxPoint x="250" y="520" />
              <mxPoint x="250" y="845" />
            </Array>
          </mxGeometry>
        </mxCell>
        <mxCell id="_pnJBIeOAMV3EheFCgYe-10" value="No" style="edgeLabel;resizable=0;html=1;align=center;verticalAlign=middle;" connectable="0" vertex="1" parent="_pnJBIeOAMV3EheFCgYe-9">
          <mxGeometry relative="1" as="geometry">
            <mxPoint y="-172" as="offset" />
          </mxGeometry>
        </mxCell>
        <mxCell id="Co1qwD8KeL7HL2fnkDNT-3" value="" style="group" vertex="1" connectable="0" parent="1">
          <mxGeometry x="105" y="811" width="70" height="70" as="geometry" />
        </mxCell>
        <mxCell id="ICng1ieGqrjUcXiE3lIN-2" value="Invalid Request" style="verticalLabelPosition=bottom;verticalAlign=top;html=1;shape=mxgraph.basic.polygon;polyCoords=[[0.25,0],[0.75,0],[1,0.25],[1,0.75],[0.75,1],[0.25,1],[0,0.75],[0,0.25]];polyline=0;fillColor=#FF3333;" parent="Co1qwD8KeL7HL2fnkDNT-3" vertex="1">
          <mxGeometry width="70" height="70" as="geometry" />
        </mxCell>
        <mxCell id="Co1qwD8KeL7HL2fnkDNT-2" value="STOP" style="text;html=1;align=center;verticalAlign=middle;whiteSpace=wrap;rounded=0;fontSize=19;opacity=50;fontColor=#FFFFFF;" vertex="1" parent="Co1qwD8KeL7HL2fnkDNT-3">
          <mxGeometry x="5" y="20" width="60" height="30" as="geometry" />
        </mxCell>
        <mxCell id="Co1qwD8KeL7HL2fnkDNT-4" value="" style="group" vertex="1" connectable="0" parent="1">
          <mxGeometry x="275" y="811" width="70" height="70" as="geometry" />
        </mxCell>
        <mxCell id="Co1qwD8KeL7HL2fnkDNT-5" value="Not Feasible" style="verticalLabelPosition=bottom;verticalAlign=top;html=1;shape=mxgraph.basic.polygon;polyCoords=[[0.25,0],[0.75,0],[1,0.25],[1,0.75],[0.75,1],[0.25,1],[0,0.75],[0,0.25]];polyline=0;fillColor=#FF3333;" vertex="1" parent="Co1qwD8KeL7HL2fnkDNT-4">
          <mxGeometry width="70" height="70" as="geometry" />
        </mxCell>
        <mxCell id="Co1qwD8KeL7HL2fnkDNT-6" value="STOP" style="text;html=1;align=center;verticalAlign=middle;whiteSpace=wrap;rounded=0;fontSize=19;opacity=50;fontColor=#FFFFFF;" vertex="1" parent="Co1qwD8KeL7HL2fnkDNT-4">
          <mxGeometry x="5" y="20" width="60" height="30" as="geometry" />
        </mxCell>
        <mxCell id="Co1qwD8KeL7HL2fnkDNT-11" value="" style="shape=flexArrow;endArrow=classic;html=1;rounded=0;fontSize=19;fontColor=#FFFFFF;exitX=0.5;exitY=1;exitDx=0;exitDy=0;fillColor=#e1d5e7;strokeColor=none;" edge="1" parent="1" source="Co1qwD8KeL7HL2fnkDNT-9" target="Co1qwD8KeL7HL2fnkDNT-13">
          <mxGeometry width="50" height="50" relative="1" as="geometry">
            <mxPoint x="780" y="871" as="sourcePoint" />
            <mxPoint x="800" y="821" as="targetPoint" />
          </mxGeometry>
        </mxCell>
        <mxCell id="Co1qwD8KeL7HL2fnkDNT-13" value="Refer to Build Workflow Diagram for more detail" style="ellipse;whiteSpace=wrap;html=1;aspect=fixed;fontSize=11;fillColor=#e1d5e7;opacity=50;strokeColor=#9673a6;" vertex="1" parent="1">
          <mxGeometry x="750" y="811" width="100" height="100" as="geometry" />
        </mxCell>
      </root>
    </mxGraphModel>
  </diagram>
  <diagram id="b93gqnwrSW7FECcNW-AN" name="Build Workflow">
    <mxGraphModel dx="1178" dy="903" grid="1" gridSize="10" guides="1" tooltips="1" connect="1" arrows="1" fold="1" page="1" pageScale="1" pageWidth="850" pageHeight="1100" math="0" shadow="0">
      <root>
        <mxCell id="0" />
        <mxCell id="1" parent="0" />
        <mxCell id="Yvfhyada4gueQQQA85GS-10" value="" style="edgeStyle=orthogonalEdgeStyle;rounded=0;orthogonalLoop=1;jettySize=auto;html=1;fontSize=10;fontColor=#000000;" edge="1" parent="1" source="Yvfhyada4gueQQQA85GS-1" target="Yvfhyada4gueQQQA85GS-6">
          <mxGeometry relative="1" as="geometry" />
        </mxCell>
        <mxCell id="Yvfhyada4gueQQQA85GS-19" style="edgeStyle=none;rounded=0;orthogonalLoop=1;jettySize=auto;html=1;exitX=1;exitY=0.5;exitDx=0;exitDy=0;entryX=0;entryY=0.5;entryDx=0;entryDy=0;dashed=1;fontSize=10;fontColor=#000000;endArrow=none;endFill=0;" edge="1" parent="1" source="Yvfhyada4gueQQQA85GS-1" target="Yvfhyada4gueQQQA85GS-5">
          <mxGeometry relative="1" as="geometry" />
        </mxCell>
        <mxCell id="Yvfhyada4gueQQQA85GS-1" value="&lt;font color=&quot;#000000&quot;&gt;Friction Free Form&lt;/font&gt;" style="rounded=1;whiteSpace=wrap;html=1;fontSize=10;arcSize=15;fillColor=#b1ddf0;strokeColor=#10739e;" vertex="1" parent="1">
          <mxGeometry x="100" y="120" width="120" height="60" as="geometry" />
        </mxCell>
        <mxCell id="Yvfhyada4gueQQQA85GS-4" value="" style="edgeStyle=orthogonalEdgeStyle;rounded=0;orthogonalLoop=1;jettySize=auto;html=1;fontSize=10;fontColor=#000000;" edge="1" parent="1" source="Yvfhyada4gueQQQA85GS-2" target="Yvfhyada4gueQQQA85GS-1">
          <mxGeometry relative="1" as="geometry" />
        </mxCell>
        <mxCell id="Yvfhyada4gueQQQA85GS-2" value="Requester" style="shape=umlActor;verticalLabelPosition=bottom;verticalAlign=top;html=1;outlineConnect=0;fontSize=10;" vertex="1" parent="1">
          <mxGeometry x="145" y="10" width="30" height="60" as="geometry" />
        </mxCell>
        <mxCell id="Yvfhyada4gueQQQA85GS-11" value="" style="edgeStyle=orthogonalEdgeStyle;rounded=0;orthogonalLoop=1;jettySize=auto;html=1;fontSize=10;fontColor=#000000;" edge="1" parent="1" source="Yvfhyada4gueQQQA85GS-6" target="Yvfhyada4gueQQQA85GS-9">
          <mxGeometry relative="1" as="geometry" />
        </mxCell>
        <mxCell id="Yvfhyada4gueQQQA85GS-6" value="Intake Analysis" style="rounded=1;whiteSpace=wrap;html=1;fontSize=10;fillColor=#b1ddf0;strokeColor=#10739e;" vertex="1" parent="1">
          <mxGeometry x="100" y="220" width="120" height="60" as="geometry" />
        </mxCell>
        <mxCell id="Yvfhyada4gueQQQA85GS-16" style="edgeStyle=orthogonalEdgeStyle;rounded=0;orthogonalLoop=1;jettySize=auto;html=1;entryX=1;entryY=0.5;entryDx=0;entryDy=0;fontSize=10;fontColor=#000000;exitX=0.5;exitY=1;exitDx=0;exitDy=0;" edge="1" parent="1" source="Yvfhyada4gueQQQA85GS-7" target="Yvfhyada4gueQQQA85GS-8">
          <mxGeometry relative="1" as="geometry" />
        </mxCell>
        <mxCell id="Yvfhyada4gueQQQA85GS-7" value="Gateway Meeting" style="rounded=1;whiteSpace=wrap;html=1;fontSize=10;fillColor=#b1ddf0;strokeColor=#10739e;" vertex="1" parent="1">
          <mxGeometry x="290" y="340" width="120" height="60" as="geometry" />
        </mxCell>
        <mxCell id="Yvfhyada4gueQQQA85GS-18" style="rounded=0;orthogonalLoop=1;jettySize=auto;html=1;exitX=1;exitY=0.75;exitDx=0;exitDy=0;entryX=0.01;entryY=0.688;entryDx=0;entryDy=0;fontSize=10;fontColor=#000000;dashed=1;endArrow=none;endFill=0;entryPerimeter=0;" edge="1" parent="1" source="Yvfhyada4gueQQQA85GS-8" target="Yvfhyada4gueQQQA85GS-17">
          <mxGeometry relative="1" as="geometry" />
        </mxCell>
        <mxCell id="Yvfhyada4gueQQQA85GS-36" value="" style="edgeStyle=none;rounded=0;orthogonalLoop=1;jettySize=auto;html=1;fontSize=10;fontColor=#000000;startArrow=none;startFill=0;endArrow=classic;endFill=1;" edge="1" parent="1" source="Yvfhyada4gueQQQA85GS-8" target="Yvfhyada4gueQQQA85GS-28">
          <mxGeometry relative="1" as="geometry" />
        </mxCell>
        <mxCell id="Yvfhyada4gueQQQA85GS-8" value="Documentation of Request, Deliverables, etc" style="rounded=1;whiteSpace=wrap;html=1;fontSize=10;fillColor=#b1ddf0;strokeColor=#10739e;" vertex="1" parent="1">
          <mxGeometry x="100" y="460" width="120" height="60" as="geometry" />
        </mxCell>
        <mxCell id="Yvfhyada4gueQQQA85GS-9" value="Gateway Meeting Needed?" style="rhombus;whiteSpace=wrap;html=1;fontSize=10;fillColor=#fad7ac;strokeColor=#b46504;" vertex="1" parent="1">
          <mxGeometry x="105" y="320" width="110" height="100" as="geometry" />
        </mxCell>
        <mxCell id="Yvfhyada4gueQQQA85GS-12" value="" style="endArrow=classic;html=1;rounded=0;fontSize=10;fontColor=#000000;exitX=1;exitY=0.5;exitDx=0;exitDy=0;entryX=0;entryY=0.5;entryDx=0;entryDy=0;" edge="1" parent="1" source="Yvfhyada4gueQQQA85GS-9" target="Yvfhyada4gueQQQA85GS-7">
          <mxGeometry relative="1" as="geometry">
            <mxPoint x="240" y="430" as="sourcePoint" />
            <mxPoint x="340" y="430" as="targetPoint" />
          </mxGeometry>
        </mxCell>
        <mxCell id="Yvfhyada4gueQQQA85GS-13" value="Yes" style="edgeLabel;resizable=0;html=1;align=center;verticalAlign=middle;fontSize=10;fontColor=#000000;" connectable="0" vertex="1" parent="Yvfhyada4gueQQQA85GS-12">
          <mxGeometry relative="1" as="geometry" />
        </mxCell>
        <mxCell id="Yvfhyada4gueQQQA85GS-14" value="" style="endArrow=classic;html=1;rounded=0;fontSize=10;fontColor=#000000;exitX=0.5;exitY=1;exitDx=0;exitDy=0;entryX=0.5;entryY=0;entryDx=0;entryDy=0;" edge="1" parent="1" source="Yvfhyada4gueQQQA85GS-9" target="Yvfhyada4gueQQQA85GS-8">
          <mxGeometry relative="1" as="geometry">
            <mxPoint x="250" y="430" as="sourcePoint" />
            <mxPoint x="350" y="430" as="targetPoint" />
          </mxGeometry>
        </mxCell>
        <mxCell id="Yvfhyada4gueQQQA85GS-15" value="No" style="edgeLabel;resizable=0;html=1;align=center;verticalAlign=middle;fontSize=10;fontColor=#000000;" connectable="0" vertex="1" parent="Yvfhyada4gueQQQA85GS-14">
          <mxGeometry relative="1" as="geometry" />
        </mxCell>
        <mxCell id="Yvfhyada4gueQQQA85GS-21" value="Cohort Build" style="swimlane;horizontal=0;fontSize=10;fontColor=#000000;startSize=20;" vertex="1" parent="1">
          <mxGeometry x="40" y="560" width="710" height="400" as="geometry" />
        </mxCell>
        <mxCell id="Yvfhyada4gueQQQA85GS-34" value="" style="edgeStyle=none;rounded=0;orthogonalLoop=1;jettySize=auto;html=1;dashed=1;fontSize=10;fontColor=#000000;endArrow=none;endFill=0;entryX=-0.007;entryY=0.195;entryDx=0;entryDy=0;entryPerimeter=0;startArrow=classic;startFill=1;" edge="1" parent="Yvfhyada4gueQQQA85GS-21" source="Yvfhyada4gueQQQA85GS-28" target="Yvfhyada4gueQQQA85GS-30">
          <mxGeometry relative="1" as="geometry" />
        </mxCell>
        <mxCell id="Yvfhyada4gueQQQA85GS-40" value="" style="edgeStyle=none;rounded=0;orthogonalLoop=1;jettySize=auto;html=1;fontSize=10;fontColor=#000000;startArrow=none;startFill=0;endArrow=classic;endFill=1;" edge="1" parent="Yvfhyada4gueQQQA85GS-21" source="Yvfhyada4gueQQQA85GS-28" target="Yvfhyada4gueQQQA85GS-39">
          <mxGeometry relative="1" as="geometry" />
        </mxCell>
        <mxCell id="Yvfhyada4gueQQQA85GS-28" value="Define Patients/ Encounters based on Researcher Criteria" style="rounded=1;whiteSpace=wrap;html=1;fontSize=10;fillColor=#b1ddf0;strokeColor=#10739e;" vertex="1" parent="Yvfhyada4gueQQQA85GS-21">
          <mxGeometry x="60" y="20" width="120" height="60" as="geometry" />
        </mxCell>
        <mxCell id="Yvfhyada4gueQQQA85GS-50" style="edgeStyle=orthogonalEdgeStyle;rounded=0;orthogonalLoop=1;jettySize=auto;html=1;exitX=0.5;exitY=0;exitDx=0;exitDy=0;fontSize=10;fontColor=#000000;startArrow=none;startFill=0;endArrow=none;endFill=0;dashed=1;" edge="1" parent="Yvfhyada4gueQQQA85GS-21" source="Yvfhyada4gueQQQA85GS-29" target="Yvfhyada4gueQQQA85GS-30">
          <mxGeometry relative="1" as="geometry" />
        </mxCell>
        <mxCell id="Yvfhyada4gueQQQA85GS-29" value="DataLens Cohort" style="shape=document;whiteSpace=wrap;html=1;boundedLbl=1;fontSize=10;fillColor=#b0e3e6;strokeColor=#0e8088;" vertex="1" parent="Yvfhyada4gueQQQA85GS-21">
          <mxGeometry x="350" y="310" width="120" height="80" as="geometry" />
        </mxCell>
        <mxCell id="Yvfhyada4gueQQQA85GS-30" value="Cohort Source" style="swimlane;fontStyle=0;childLayout=stackLayout;horizontal=1;startSize=30;horizontalStack=0;resizeParent=1;resizeParentMax=0;resizeLast=0;collapsible=1;marginBottom=0;fontSize=10;fillColor=#fad9d5;strokeColor=#ae4132;" vertex="1" parent="Yvfhyada4gueQQQA85GS-21">
          <mxGeometry x="320" y="20" width="180" height="120" as="geometry" />
        </mxCell>
        <mxCell id="Yvfhyada4gueQQQA85GS-31" value="i2b2" style="text;strokeColor=none;fillColor=none;align=left;verticalAlign=middle;spacingLeft=4;spacingRight=4;overflow=hidden;points=[[0,0.5],[1,0.5]];portConstraint=eastwest;rotatable=0;fontSize=10;fontColor=#000000;" vertex="1" parent="Yvfhyada4gueQQQA85GS-30">
          <mxGeometry y="30" width="180" height="30" as="geometry" />
        </mxCell>
        <mxCell id="Yvfhyada4gueQQQA85GS-32" value="SQL" style="text;strokeColor=none;fillColor=none;align=left;verticalAlign=middle;spacingLeft=4;spacingRight=4;overflow=hidden;points=[[0,0.5],[1,0.5]];portConstraint=eastwest;rotatable=0;fontSize=10;fontColor=#000000;" vertex="1" parent="Yvfhyada4gueQQQA85GS-30">
          <mxGeometry y="60" width="180" height="30" as="geometry" />
        </mxCell>
        <mxCell id="Yvfhyada4gueQQQA85GS-33" value="List of Patients provided with Request" style="text;strokeColor=none;fillColor=none;align=left;verticalAlign=middle;spacingLeft=4;spacingRight=4;overflow=hidden;points=[[0,0.5],[1,0.5]];portConstraint=eastwest;rotatable=0;fontSize=10;fontColor=#000000;" vertex="1" parent="Yvfhyada4gueQQQA85GS-30">
          <mxGeometry y="90" width="180" height="30" as="geometry" />
        </mxCell>
        <mxCell id="Yvfhyada4gueQQQA85GS-38" value="EX, TT" style="text;html=1;strokeColor=none;fillColor=none;align=left;verticalAlign=middle;whiteSpace=wrap;rounded=0;fontSize=10;fontColor=#000000;" vertex="1" parent="Yvfhyada4gueQQQA85GS-21">
          <mxGeometry x="180" y="50" width="60" height="30" as="geometry" />
        </mxCell>
        <mxCell id="Yvfhyada4gueQQQA85GS-42" style="edgeStyle=none;rounded=0;orthogonalLoop=1;jettySize=auto;html=1;exitX=1;exitY=0.5;exitDx=0;exitDy=0;entryX=0;entryY=0.5;entryDx=0;entryDy=0;fontSize=10;fontColor=#000000;startArrow=none;startFill=0;endArrow=none;endFill=0;dashed=1;" edge="1" parent="Yvfhyada4gueQQQA85GS-21" source="Yvfhyada4gueQQQA85GS-39" target="Yvfhyada4gueQQQA85GS-41">
          <mxGeometry relative="1" as="geometry" />
        </mxCell>
        <mxCell id="Yvfhyada4gueQQQA85GS-44" value="" style="edgeStyle=none;rounded=0;orthogonalLoop=1;jettySize=auto;html=1;dashed=1;fontSize=10;fontColor=#000000;startArrow=none;startFill=0;endArrow=none;endFill=0;" edge="1" parent="Yvfhyada4gueQQQA85GS-21" source="Yvfhyada4gueQQQA85GS-39" target="Yvfhyada4gueQQQA85GS-43">
          <mxGeometry relative="1" as="geometry" />
        </mxCell>
        <mxCell id="Yvfhyada4gueQQQA85GS-39" value="Requester Review of Cohort" style="rounded=1;whiteSpace=wrap;html=1;fontSize=10;fillColor=#b1ddf0;strokeColor=#10739e;" vertex="1" parent="Yvfhyada4gueQQQA85GS-21">
          <mxGeometry x="60" y="125" width="120" height="60" as="geometry" />
        </mxCell>
        <mxCell id="Yvfhyada4gueQQQA85GS-41" value="&amp;nbsp;Human Readable Cohort Definition OR Demo/Encounter Files" style="shape=document;whiteSpace=wrap;html=1;boundedLbl=1;fontSize=10;fillColor=#b0e3e6;strokeColor=#0e8088;" vertex="1" parent="Yvfhyada4gueQQQA85GS-21">
          <mxGeometry x="230" y="170" width="120" height="80" as="geometry" />
        </mxCell>
        <mxCell id="Yvfhyada4gueQQQA85GS-54" style="edgeStyle=orthogonalEdgeStyle;rounded=0;orthogonalLoop=1;jettySize=auto;html=1;entryX=0;entryY=0.5;entryDx=0;entryDy=0;fontSize=10;fontColor=#000000;startArrow=none;startFill=0;endArrow=none;endFill=0;" edge="1" parent="Yvfhyada4gueQQQA85GS-21" source="Yvfhyada4gueQQQA85GS-43" target="Yvfhyada4gueQQQA85GS-28">
          <mxGeometry relative="1" as="geometry">
            <Array as="points">
              <mxPoint x="40" y="250" />
              <mxPoint x="40" y="50" />
            </Array>
          </mxGeometry>
        </mxCell>
        <mxCell id="Yvfhyada4gueQQQA85GS-43" value="Approved by Requester?" style="rhombus;whiteSpace=wrap;html=1;fontSize=10;fillColor=#fad7ac;strokeColor=#b46504;" vertex="1" parent="Yvfhyada4gueQQQA85GS-21">
          <mxGeometry x="80" y="210" width="80" height="80" as="geometry" />
        </mxCell>
        <mxCell id="Yvfhyada4gueQQQA85GS-47" value="Feedback Loop" style="text;html=1;strokeColor=none;fillColor=none;align=center;verticalAlign=middle;whiteSpace=wrap;rounded=0;fontSize=10;fontColor=#000000;rotation=-90;" vertex="1" parent="Yvfhyada4gueQQQA85GS-21">
          <mxGeometry x="-5" y="125" width="80" height="30" as="geometry" />
        </mxCell>
        <mxCell id="Yvfhyada4gueQQQA85GS-57" style="edgeStyle=orthogonalEdgeStyle;rounded=0;orthogonalLoop=1;jettySize=auto;html=1;exitX=1;exitY=0.5;exitDx=0;exitDy=0;entryX=0;entryY=0.5;entryDx=0;entryDy=0;fontSize=10;fontColor=#000000;startArrow=none;startFill=0;endArrow=none;endFill=0;dashed=1;" edge="1" parent="Yvfhyada4gueQQQA85GS-21" source="Yvfhyada4gueQQQA85GS-51" target="Yvfhyada4gueQQQA85GS-29">
          <mxGeometry relative="1" as="geometry" />
        </mxCell>
        <mxCell id="Yvfhyada4gueQQQA85GS-51" value="Register Cohort" style="rounded=1;whiteSpace=wrap;html=1;fontSize=10;fillColor=#b1ddf0;strokeColor=#10739e;" vertex="1" parent="Yvfhyada4gueQQQA85GS-21">
          <mxGeometry x="60" y="320" width="120" height="60" as="geometry" />
        </mxCell>
        <mxCell id="Yvfhyada4gueQQQA85GS-52" value="" style="endArrow=classic;html=1;rounded=0;fontSize=10;fontColor=#000000;exitX=0.5;exitY=1;exitDx=0;exitDy=0;entryX=0.5;entryY=0;entryDx=0;entryDy=0;" edge="1" parent="Yvfhyada4gueQQQA85GS-21" source="Yvfhyada4gueQQQA85GS-43" target="Yvfhyada4gueQQQA85GS-51">
          <mxGeometry relative="1" as="geometry">
            <mxPoint x="340" y="260" as="sourcePoint" />
            <mxPoint x="440" y="260" as="targetPoint" />
          </mxGeometry>
        </mxCell>
        <mxCell id="Yvfhyada4gueQQQA85GS-53" value="Yes" style="edgeLabel;resizable=0;html=1;align=center;verticalAlign=middle;fontSize=10;fontColor=#000000;" connectable="0" vertex="1" parent="Yvfhyada4gueQQQA85GS-52">
          <mxGeometry relative="1" as="geometry">
            <mxPoint y="-10" as="offset" />
          </mxGeometry>
        </mxCell>
        <mxCell id="Yvfhyada4gueQQQA85GS-55" value="No" style="text;html=1;strokeColor=none;fillColor=none;align=center;verticalAlign=middle;whiteSpace=wrap;rounded=0;fontSize=10;fontColor=#000000;" vertex="1" parent="Yvfhyada4gueQQQA85GS-21">
          <mxGeometry x="30" y="235" width="60" height="30" as="geometry" />
        </mxCell>
        <mxCell id="Yvfhyada4gueQQQA85GS-68" value="EX, TT" style="text;html=1;strokeColor=none;fillColor=none;align=left;verticalAlign=middle;whiteSpace=wrap;rounded=0;fontSize=10;fontColor=#000000;" vertex="1" parent="Yvfhyada4gueQQQA85GS-21">
          <mxGeometry x="180" y="350" width="60" height="30" as="geometry" />
        </mxCell>
        <mxCell id="Yvfhyada4gueQQQA85GS-105" value="RQ" style="text;html=1;strokeColor=none;fillColor=none;align=left;verticalAlign=middle;whiteSpace=wrap;rounded=0;fontSize=10;fontColor=#000000;" vertex="1" parent="Yvfhyada4gueQQQA85GS-21">
          <mxGeometry x="160" y="180" width="60" height="30" as="geometry" />
        </mxCell>
        <mxCell id="Yvfhyada4gueQQQA85GS-24" value="Intake" style="swimlane;horizontal=0;fontSize=10;startSize=20;" vertex="1" parent="1">
          <mxGeometry x="40" y="90" width="710" height="470" as="geometry" />
        </mxCell>
        <mxCell id="Yvfhyada4gueQQQA85GS-25" value="IN" style="text;html=1;strokeColor=none;fillColor=none;align=left;verticalAlign=middle;whiteSpace=wrap;rounded=0;fontSize=10;fontColor=#000000;" vertex="1" parent="Yvfhyada4gueQQQA85GS-24">
          <mxGeometry x="180" y="160" width="60" height="30" as="geometry" />
        </mxCell>
        <mxCell id="Yvfhyada4gueQQQA85GS-26" value="GW" style="text;html=1;strokeColor=none;fillColor=none;align=left;verticalAlign=middle;whiteSpace=wrap;rounded=0;fontSize=10;fontColor=#000000;" vertex="1" parent="Yvfhyada4gueQQQA85GS-24">
          <mxGeometry x="370" y="280" width="60" height="30" as="geometry" />
        </mxCell>
        <mxCell id="Yvfhyada4gueQQQA85GS-27" value="EX, TT, GW" style="text;html=1;strokeColor=none;fillColor=none;align=left;verticalAlign=middle;whiteSpace=wrap;rounded=0;fontSize=10;fontColor=#000000;" vertex="1" parent="Yvfhyada4gueQQQA85GS-24">
          <mxGeometry x="180" y="410" width="60" height="30" as="geometry" />
        </mxCell>
        <mxCell id="Yvfhyada4gueQQQA85GS-5" value="Request Logged&lt;br&gt;(RedCAP?)" style="shape=document;whiteSpace=wrap;html=1;boundedLbl=1;fontSize=10;fillColor=#b0e3e6;strokeColor=#0e8088;" vertex="1" parent="Yvfhyada4gueQQQA85GS-24">
          <mxGeometry x="250" y="20" width="120" height="80" as="geometry" />
        </mxCell>
        <mxCell id="Yvfhyada4gueQQQA85GS-104" value="RQ" style="text;html=1;strokeColor=none;fillColor=none;align=left;verticalAlign=middle;whiteSpace=wrap;rounded=0;fontSize=10;fontColor=#000000;" vertex="1" parent="Yvfhyada4gueQQQA85GS-24">
          <mxGeometry x="180" y="60" width="60" height="30" as="geometry" />
        </mxCell>
        <mxCell id="Yvfhyada4gueQQQA85GS-110" value="&lt;font style=&quot;font-size: 13px;&quot;&gt;LEGEND&lt;/font&gt;&lt;br&gt;&lt;br&gt;RQ = &quot;Requester&quot;&lt;br&gt;IN = &quot;Intake Expert&quot;&lt;br&gt;EX = &quot;Extraction Team&quot;&lt;br&gt;TT = &quot;Transformation Team&quot;" style="whiteSpace=wrap;html=1;aspect=fixed;fontSize=10;fillColor=#bac8d3;strokeColor=#23445d;" vertex="1" parent="Yvfhyada4gueQQQA85GS-24">
          <mxGeometry x="550" y="20" width="140" height="140" as="geometry" />
        </mxCell>
        <mxCell id="Yvfhyada4gueQQQA85GS-17" value="DataLens Assets&lt;br&gt;(Request, Project, Protocol)" style="shape=document;whiteSpace=wrap;html=1;boundedLbl=1;fontSize=10;fillColor=#b0e3e6;strokeColor=#0e8088;" vertex="1" parent="Yvfhyada4gueQQQA85GS-24">
          <mxGeometry x="385" y="360" width="120" height="80" as="geometry" />
        </mxCell>
        <mxCell id="Yvfhyada4gueQQQA85GS-58" value="Dataset Build" style="swimlane;horizontal=0;fontSize=10;fontColor=#000000;startSize=20;" vertex="1" parent="1">
          <mxGeometry x="40" y="960" width="710" height="580" as="geometry" />
        </mxCell>
        <mxCell id="Yvfhyada4gueQQQA85GS-62" value="Comprehensive Dataset" style="edgeStyle=orthogonalEdgeStyle;rounded=0;orthogonalLoop=1;jettySize=auto;html=1;fontSize=10;fontColor=#000000;startArrow=none;startFill=0;endArrow=classic;endFill=1;" edge="1" parent="Yvfhyada4gueQQQA85GS-58" source="Yvfhyada4gueQQQA85GS-59" target="Yvfhyada4gueQQQA85GS-61">
          <mxGeometry x="-0.3684" relative="1" as="geometry">
            <mxPoint as="offset" />
          </mxGeometry>
        </mxCell>
        <mxCell id="Yvfhyada4gueQQQA85GS-69" value="Custom Dataset" style="edgeStyle=orthogonalEdgeStyle;rounded=0;orthogonalLoop=1;jettySize=auto;html=1;exitX=1;exitY=1;exitDx=0;exitDy=0;entryX=0;entryY=0.5;entryDx=0;entryDy=0;fontSize=10;fontColor=#000000;startArrow=none;startFill=0;endArrow=classic;endFill=1;" edge="1" parent="Yvfhyada4gueQQQA85GS-58" source="Yvfhyada4gueQQQA85GS-59" target="Yvfhyada4gueQQQA85GS-65">
          <mxGeometry x="-0.5455" relative="1" as="geometry">
            <Array as="points">
              <mxPoint x="260" y="80" />
              <mxPoint x="260" y="140" />
            </Array>
            <mxPoint as="offset" />
          </mxGeometry>
        </mxCell>
        <mxCell id="Yvfhyada4gueQQQA85GS-71" value="Complex Dataset" style="edgeStyle=orthogonalEdgeStyle;rounded=0;orthogonalLoop=1;jettySize=auto;html=1;exitX=0.5;exitY=1;exitDx=0;exitDy=0;entryX=0;entryY=0.5;entryDx=0;entryDy=0;fontSize=10;fontColor=#000000;startArrow=none;startFill=0;endArrow=classic;endFill=1;" edge="1" parent="Yvfhyada4gueQQQA85GS-58" source="Yvfhyada4gueQQQA85GS-59" target="Yvfhyada4gueQQQA85GS-70">
          <mxGeometry x="-0.6775" relative="1" as="geometry">
            <mxPoint as="offset" />
          </mxGeometry>
        </mxCell>
        <mxCell id="Yvfhyada4gueQQQA85GS-59" value="Dataset Type?" style="rhombus;whiteSpace=wrap;html=1;fontSize=10;fillColor=#fad7ac;strokeColor=#b46504;" vertex="1" parent="Yvfhyada4gueQQQA85GS-58">
          <mxGeometry x="80" y="20" width="80" height="80" as="geometry" />
        </mxCell>
        <mxCell id="Yvfhyada4gueQQQA85GS-73" style="edgeStyle=orthogonalEdgeStyle;rounded=0;orthogonalLoop=1;jettySize=auto;html=1;exitX=1;exitY=0.5;exitDx=0;exitDy=0;entryX=0.5;entryY=0;entryDx=0;entryDy=0;fontSize=10;fontColor=#000000;startArrow=none;startFill=0;endArrow=none;endFill=0;dashed=1;" edge="1" parent="Yvfhyada4gueQQQA85GS-58" source="Yvfhyada4gueQQQA85GS-61" target="Yvfhyada4gueQQQA85GS-63">
          <mxGeometry relative="1" as="geometry" />
        </mxCell>
        <mxCell id="Yvfhyada4gueQQQA85GS-80" style="edgeStyle=orthogonalEdgeStyle;rounded=0;orthogonalLoop=1;jettySize=auto;html=1;exitX=1;exitY=0.75;exitDx=0;exitDy=0;entryX=1;entryY=0.5;entryDx=0;entryDy=0;fontSize=10;fontColor=#000000;startArrow=none;startFill=0;endArrow=classic;endFill=1;" edge="1" parent="Yvfhyada4gueQQQA85GS-58" source="Yvfhyada4gueQQQA85GS-61" target="Yvfhyada4gueQQQA85GS-79">
          <mxGeometry relative="1" as="geometry">
            <Array as="points">
              <mxPoint x="530" y="75" />
              <mxPoint x="530" y="390" />
            </Array>
          </mxGeometry>
        </mxCell>
        <mxCell id="Yvfhyada4gueQQQA85GS-61" value="Standard Dataset Builder" style="rounded=1;whiteSpace=wrap;html=1;fontSize=10;fillColor=#b1ddf0;strokeColor=#10739e;" vertex="1" parent="Yvfhyada4gueQQQA85GS-58">
          <mxGeometry x="350" y="30" width="120" height="60" as="geometry" />
        </mxCell>
        <mxCell id="Yvfhyada4gueQQQA85GS-63" value="DataLens Dataset" style="shape=document;whiteSpace=wrap;html=1;boundedLbl=1;fontSize=10;fillColor=#b0e3e6;strokeColor=#0e8088;" vertex="1" parent="Yvfhyada4gueQQQA85GS-58">
          <mxGeometry x="550" y="110" width="120" height="80" as="geometry" />
        </mxCell>
        <mxCell id="Yvfhyada4gueQQQA85GS-65" value="Program Dataset in SQL, expand with DataLens Tools" style="rounded=1;whiteSpace=wrap;html=1;fontSize=10;fillColor=#b1ddf0;strokeColor=#10739e;" vertex="1" parent="Yvfhyada4gueQQQA85GS-58">
          <mxGeometry x="350" y="110" width="120" height="60" as="geometry" />
        </mxCell>
        <mxCell id="Yvfhyada4gueQQQA85GS-75" style="edgeStyle=orthogonalEdgeStyle;rounded=0;orthogonalLoop=1;jettySize=auto;html=1;exitX=0;exitY=0;exitDx=0;exitDy=0;entryX=-0.02;entryY=0.413;entryDx=0;entryDy=0;entryPerimeter=0;dashed=1;fontSize=10;fontColor=#000000;startArrow=none;startFill=0;endArrow=none;endFill=0;" edge="1" parent="Yvfhyada4gueQQQA85GS-58" source="Yvfhyada4gueQQQA85GS-67" target="Yvfhyada4gueQQQA85GS-63">
          <mxGeometry relative="1" as="geometry">
            <Array as="points">
              <mxPoint x="510" y="140" />
              <mxPoint x="510" y="143" />
            </Array>
          </mxGeometry>
        </mxCell>
        <mxCell id="Yvfhyada4gueQQQA85GS-67" value="EX, TT" style="text;html=1;strokeColor=none;fillColor=none;align=left;verticalAlign=middle;whiteSpace=wrap;rounded=0;fontSize=10;fontColor=#000000;" vertex="1" parent="Yvfhyada4gueQQQA85GS-58">
          <mxGeometry x="470" y="140" width="60" height="30" as="geometry" />
        </mxCell>
        <mxCell id="Yvfhyada4gueQQQA85GS-76" style="edgeStyle=orthogonalEdgeStyle;rounded=0;orthogonalLoop=1;jettySize=auto;html=1;exitX=1;exitY=0.5;exitDx=0;exitDy=0;entryX=0.553;entryY=0.843;entryDx=0;entryDy=0;entryPerimeter=0;dashed=1;fontSize=10;fontColor=#000000;startArrow=none;startFill=0;endArrow=none;endFill=0;" edge="1" parent="Yvfhyada4gueQQQA85GS-58" source="Yvfhyada4gueQQQA85GS-70" target="Yvfhyada4gueQQQA85GS-63">
          <mxGeometry relative="1" as="geometry" />
        </mxCell>
        <mxCell id="Yvfhyada4gueQQQA85GS-78" value="" style="edgeStyle=orthogonalEdgeStyle;rounded=0;orthogonalLoop=1;jettySize=auto;html=1;fontSize=10;fontColor=#000000;startArrow=none;startFill=0;endArrow=classic;endFill=1;" edge="1" parent="Yvfhyada4gueQQQA85GS-58" source="Yvfhyada4gueQQQA85GS-70" target="Yvfhyada4gueQQQA85GS-77">
          <mxGeometry relative="1" as="geometry" />
        </mxCell>
        <mxCell id="Yvfhyada4gueQQQA85GS-70" value="Program Dataset in SQL, new function library, new phenotype, etc." style="rounded=1;whiteSpace=wrap;html=1;fontSize=10;fillColor=#b1ddf0;strokeColor=#10739e;" vertex="1" parent="Yvfhyada4gueQQQA85GS-58">
          <mxGeometry x="350" y="200" width="120" height="60" as="geometry" />
        </mxCell>
        <mxCell id="Yvfhyada4gueQQQA85GS-72" value="EX, TT" style="text;html=1;strokeColor=none;fillColor=none;align=left;verticalAlign=middle;whiteSpace=wrap;rounded=0;fontSize=10;fontColor=#000000;" vertex="1" parent="Yvfhyada4gueQQQA85GS-58">
          <mxGeometry x="470" y="230" width="60" height="30" as="geometry" />
        </mxCell>
        <mxCell id="Yvfhyada4gueQQQA85GS-85" style="edgeStyle=orthogonalEdgeStyle;rounded=0;orthogonalLoop=1;jettySize=auto;html=1;exitX=0;exitY=0.5;exitDx=0;exitDy=0;entryX=0.5;entryY=0;entryDx=0;entryDy=0;fontSize=10;fontColor=#000000;startArrow=none;startFill=0;endArrow=classic;endFill=1;" edge="1" parent="Yvfhyada4gueQQQA85GS-58" source="Yvfhyada4gueQQQA85GS-77" target="Yvfhyada4gueQQQA85GS-79">
          <mxGeometry relative="1" as="geometry" />
        </mxCell>
        <mxCell id="Yvfhyada4gueQQQA85GS-77" value="Register new libraries, phenotypes. Generate Documentation" style="rounded=1;whiteSpace=wrap;html=1;fontSize=10;fillColor=#b1ddf0;strokeColor=#10739e;" vertex="1" parent="Yvfhyada4gueQQQA85GS-58">
          <mxGeometry x="350" y="290" width="120" height="60" as="geometry" />
        </mxCell>
        <mxCell id="Yvfhyada4gueQQQA85GS-84" value="" style="edgeStyle=orthogonalEdgeStyle;rounded=0;orthogonalLoop=1;jettySize=auto;html=1;fontSize=10;fontColor=#000000;startArrow=none;startFill=0;endArrow=classic;endFill=1;" edge="1" parent="Yvfhyada4gueQQQA85GS-58" source="Yvfhyada4gueQQQA85GS-79" target="Yvfhyada4gueQQQA85GS-83">
          <mxGeometry relative="1" as="geometry" />
        </mxCell>
        <mxCell id="Yvfhyada4gueQQQA85GS-79" value="Requester Review of Dataset" style="rounded=1;whiteSpace=wrap;html=1;fontSize=10;fillColor=#b1ddf0;strokeColor=#10739e;" vertex="1" parent="Yvfhyada4gueQQQA85GS-58">
          <mxGeometry x="60" y="360" width="120" height="60" as="geometry" />
        </mxCell>
        <mxCell id="Yvfhyada4gueQQQA85GS-89" value="No" style="edgeStyle=orthogonalEdgeStyle;rounded=0;orthogonalLoop=1;jettySize=auto;html=1;exitX=1;exitY=0.5;exitDx=0;exitDy=0;entryX=0;entryY=0.5;entryDx=0;entryDy=0;fontSize=10;fontColor=#000000;startArrow=none;startFill=0;endArrow=classic;endFill=1;" edge="1" parent="Yvfhyada4gueQQQA85GS-58" source="Yvfhyada4gueQQQA85GS-83" target="Yvfhyada4gueQQQA85GS-59">
          <mxGeometry x="-0.6667" relative="1" as="geometry">
            <Array as="points">
              <mxPoint x="40" y="500" />
              <mxPoint x="40" y="60" />
            </Array>
            <mxPoint as="offset" />
          </mxGeometry>
        </mxCell>
        <mxCell id="Yvfhyada4gueQQQA85GS-83" value="Approved by Requester?" style="rhombus;whiteSpace=wrap;html=1;fontSize=10;fillColor=#fad7ac;strokeColor=#b46504;" vertex="1" parent="Yvfhyada4gueQQQA85GS-58">
          <mxGeometry x="80" y="460" width="80" height="80" as="geometry" />
        </mxCell>
        <mxCell id="Yvfhyada4gueQQQA85GS-86" value="EX, TT" style="text;html=1;strokeColor=none;fillColor=none;align=left;verticalAlign=middle;whiteSpace=wrap;rounded=0;fontSize=10;fontColor=#000000;" vertex="1" parent="Yvfhyada4gueQQQA85GS-58">
          <mxGeometry x="470" y="320" width="60" height="30" as="geometry" />
        </mxCell>
        <mxCell id="Yvfhyada4gueQQQA85GS-106" value="RQ" style="text;html=1;strokeColor=none;fillColor=none;align=left;verticalAlign=middle;whiteSpace=wrap;rounded=0;fontSize=10;fontColor=#000000;" vertex="1" parent="Yvfhyada4gueQQQA85GS-58">
          <mxGeometry x="180" y="390" width="60" height="30" as="geometry" />
        </mxCell>
        <mxCell id="Yvfhyada4gueQQQA85GS-107" value="RQ, EX, TT" style="text;html=1;strokeColor=none;fillColor=none;align=left;verticalAlign=middle;whiteSpace=wrap;rounded=0;fontSize=10;fontColor=#000000;" vertex="1" parent="Yvfhyada4gueQQQA85GS-58">
          <mxGeometry x="470" y="30" width="60" height="30" as="geometry" />
        </mxCell>
        <mxCell id="Yvfhyada4gueQQQA85GS-60" value="" style="edgeStyle=orthogonalEdgeStyle;rounded=0;orthogonalLoop=1;jettySize=auto;html=1;dashed=1;fontSize=10;fontColor=#000000;startArrow=none;startFill=0;endArrow=none;endFill=0;" edge="1" parent="1" source="Yvfhyada4gueQQQA85GS-51" target="Yvfhyada4gueQQQA85GS-59">
          <mxGeometry relative="1" as="geometry" />
        </mxCell>
        <mxCell id="Yvfhyada4gueQQQA85GS-81" style="edgeStyle=orthogonalEdgeStyle;rounded=0;orthogonalLoop=1;jettySize=auto;html=1;exitX=1;exitY=0.25;exitDx=0;exitDy=0;fontSize=10;fontColor=#000000;startArrow=none;startFill=0;endArrow=none;endFill=0;" edge="1" parent="1" source="Yvfhyada4gueQQQA85GS-65">
          <mxGeometry relative="1" as="geometry">
            <mxPoint x="570" y="1085" as="targetPoint" />
          </mxGeometry>
        </mxCell>
        <mxCell id="Yvfhyada4gueQQQA85GS-90" value="Wrap-Up" style="swimlane;horizontal=0;fontSize=10;fontColor=#000000;startSize=20;" vertex="1" parent="1">
          <mxGeometry x="40" y="1540" width="710" height="250" as="geometry" />
        </mxCell>
        <mxCell id="Yvfhyada4gueQQQA85GS-94" value="" style="edgeStyle=orthogonalEdgeStyle;rounded=0;orthogonalLoop=1;jettySize=auto;html=1;fontSize=10;fontColor=#000000;startArrow=none;startFill=0;endArrow=classic;endFill=1;" edge="1" parent="Yvfhyada4gueQQQA85GS-90" source="Yvfhyada4gueQQQA85GS-91" target="Yvfhyada4gueQQQA85GS-93">
          <mxGeometry relative="1" as="geometry" />
        </mxCell>
        <mxCell id="Yvfhyada4gueQQQA85GS-91" value="Finalize Checklist &amp;amp; Review DataLens Artifacts" style="rounded=1;whiteSpace=wrap;html=1;fontSize=10;fillColor=#b1ddf0;strokeColor=#10739e;" vertex="1" parent="Yvfhyada4gueQQQA85GS-90">
          <mxGeometry x="60" y="40" width="120" height="60" as="geometry" />
        </mxCell>
        <mxCell id="Yvfhyada4gueQQQA85GS-98" value="No" style="edgeStyle=orthogonalEdgeStyle;rounded=0;orthogonalLoop=1;jettySize=auto;html=1;exitX=0.5;exitY=1;exitDx=0;exitDy=0;entryX=1;entryY=0.5;entryDx=0;entryDy=0;fontSize=10;fontColor=#000000;startArrow=none;startFill=0;endArrow=classic;endFill=1;" edge="1" parent="Yvfhyada4gueQQQA85GS-90" source="Yvfhyada4gueQQQA85GS-93" target="Yvfhyada4gueQQQA85GS-96">
          <mxGeometry x="-0.7778" relative="1" as="geometry">
            <mxPoint as="offset" />
          </mxGeometry>
        </mxCell>
        <mxCell id="Yvfhyada4gueQQQA85GS-93" value="All Done?" style="rhombus;whiteSpace=wrap;html=1;fontSize=10;fillColor=#fad7ac;strokeColor=#b46504;" vertex="1" parent="Yvfhyada4gueQQQA85GS-90">
          <mxGeometry x="260" y="30" width="80" height="80" as="geometry" />
        </mxCell>
        <mxCell id="Yvfhyada4gueQQQA85GS-97" value="" style="edgeStyle=orthogonalEdgeStyle;rounded=0;orthogonalLoop=1;jettySize=auto;html=1;fontSize=10;fontColor=#000000;startArrow=none;startFill=0;endArrow=classic;endFill=1;" edge="1" parent="Yvfhyada4gueQQQA85GS-90" source="Yvfhyada4gueQQQA85GS-96" target="Yvfhyada4gueQQQA85GS-91">
          <mxGeometry relative="1" as="geometry" />
        </mxCell>
        <mxCell id="Yvfhyada4gueQQQA85GS-96" value="Complete Missing Documentation or Artifacts" style="rounded=1;whiteSpace=wrap;html=1;fontSize=10;fillColor=#b1ddf0;strokeColor=#10739e;" vertex="1" parent="Yvfhyada4gueQQQA85GS-90">
          <mxGeometry x="60" y="140" width="120" height="60" as="geometry" />
        </mxCell>
        <mxCell id="Yvfhyada4gueQQQA85GS-108" value="IN" style="text;html=1;strokeColor=none;fillColor=none;align=left;verticalAlign=middle;whiteSpace=wrap;rounded=0;fontSize=10;fontColor=#000000;" vertex="1" parent="Yvfhyada4gueQQQA85GS-90">
          <mxGeometry x="180" y="70" width="60" height="30" as="geometry" />
        </mxCell>
        <mxCell id="Yvfhyada4gueQQQA85GS-109" value="IN, EX, TT, RQ" style="text;html=1;strokeColor=none;fillColor=none;align=left;verticalAlign=middle;whiteSpace=wrap;rounded=0;fontSize=10;fontColor=#000000;" vertex="1" parent="Yvfhyada4gueQQQA85GS-90">
          <mxGeometry x="180" y="170" width="70" height="30" as="geometry" />
        </mxCell>
        <mxCell id="Yvfhyada4gueQQQA85GS-92" value="Yes" style="edgeStyle=orthogonalEdgeStyle;rounded=0;orthogonalLoop=1;jettySize=auto;html=1;fontSize=10;fontColor=#000000;startArrow=none;startFill=0;endArrow=classic;endFill=1;" edge="1" parent="1" source="Yvfhyada4gueQQQA85GS-83" target="Yvfhyada4gueQQQA85GS-91">
          <mxGeometry x="-0.5" relative="1" as="geometry">
            <mxPoint as="offset" />
          </mxGeometry>
        </mxCell>
        <mxCell id="Yvfhyada4gueQQQA85GS-99" value="Happy Requester!" style="shape=umlActor;verticalLabelPosition=bottom;verticalAlign=top;html=1;outlineConnect=0;fontSize=10;fontColor=#000000;" vertex="1" parent="1">
          <mxGeometry x="440" y="1820" width="30" height="60" as="geometry" />
        </mxCell>
        <mxCell id="Yvfhyada4gueQQQA85GS-103" value="Yes" style="edgeStyle=orthogonalEdgeStyle;rounded=0;orthogonalLoop=1;jettySize=auto;html=1;exitX=1;exitY=0.5;exitDx=0;exitDy=0;entryX=0.5;entryY=0;entryDx=0;entryDy=0;entryPerimeter=0;fontSize=10;fontColor=#000000;startArrow=none;startFill=0;endArrow=classic;endFill=1;" edge="1" parent="1" source="Yvfhyada4gueQQQA85GS-93" target="Yvfhyada4gueQQQA85GS-99">
          <mxGeometry x="-0.8596" relative="1" as="geometry">
            <mxPoint as="offset" />
          </mxGeometry>
        </mxCell>
      </root>
    </mxGraphModel>
  </diagram>
</mxfile>
